<svg width="18" height="14" viewBox="0 0 18 14" fill="none" xmlns="http://www.w3.org/2000/svg">
<path d="M5.21058 12.7894C6.14074 12.7894 6.89479 12.0354 6.89479 11.1052C6.89479 10.1751 6.14074 9.42102 5.21058 9.42102C4.28041 9.42102 3.52637 10.1751 3.52637 11.1052C3.52637 12.0354 4.28041 12.7894 5.21058 12.7894Z" stroke="black" stroke-linecap="round" stroke-linejoin="round"/>
<path d="M13.6315 12.7894C14.5616 12.7894 15.3157 12.0354 15.3157 11.1052C15.3157 10.1751 14.5616 9.42102 13.6315 9.42102C12.7013 9.42102 11.9473 10.1751 11.9473 11.1052C11.9473 12.0354 12.7013 12.7894 13.6315 12.7894Z" stroke="#18A865" stroke-linecap="round" stroke-linejoin="round"/>
<path d="M3.52632 11.1053H1.84211V7.73684M1 1H10.2632V11.1053M6.89474 11.1053H11.9474M15.3158 11.1053H17V6.05263H10.2632M10.2632 1.84211H14.4737L17 6.05263M1.84211 4.36842H5.21053" stroke="black" stroke-linecap="round" stroke-linejoin="round"/>
</svg>
