<svg width="50" height="44" viewBox="0 0 50 44" fill="none" xmlns="http://www.w3.org/2000/svg">
<path fill-rule="evenodd" clip-rule="evenodd" d="M0.766602 5.82131C0.766602 3.09919 2.93277 0.854126 5.65169 0.854126H40.1346C42.8537 0.854126 45.0198 3.09919 45.0198 5.82131V16.6588C45.0198 17.2407 44.5479 17.7125 43.9661 17.7125C43.3843 17.7125 42.9125 17.2407 42.9125 16.6588V5.82131C42.9125 4.22068 41.6479 2.96142 40.1346 2.96142H5.65169C4.1385 2.96142 2.8739 4.22068 2.8739 5.82131V25.3891C2.8739 26.9896 4.1385 28.2489 5.65169 28.2489H20.7859C21.3677 28.2489 21.8395 28.7208 21.8395 29.3026C21.8395 29.8844 21.3677 30.3562 20.7859 30.3562H5.65169C2.93277 30.3562 0.766602 28.1111 0.766602 25.3891V5.82131Z" fill="black" stroke="#F8F8F8" stroke-width="0.8"/>
<path fill-rule="evenodd" clip-rule="evenodd" d="M0.766602 8.22967C0.766602 7.64776 1.23834 7.17603 1.82025 7.17603H43.9661C44.5479 7.17603 45.0198 7.64776 45.0198 8.22967C45.0198 8.81158 44.5479 9.28332 43.9661 9.28332H1.82025C1.23834 9.28332 0.766602 8.81158 0.766602 8.22967Z" fill="black" stroke="#F8F8F8" stroke-width="0.8"/>
<path fill-rule="evenodd" clip-rule="evenodd" d="M4.98145 18.7661C4.98145 18.1843 5.45318 17.7125 6.03509 17.7125H10.2497C10.8316 17.7125 11.3033 18.1843 11.3033 18.7661C11.3033 19.3479 10.8316 19.8198 10.2497 19.8198H6.03509C5.45318 19.8198 4.98145 19.3479 4.98145 18.7661Z" fill="#18A865" stroke="#F8F8F8" stroke-width="0.8"/>
<path fill-rule="evenodd" clip-rule="evenodd" d="M4.98145 24.0344C4.98145 23.4525 5.45318 22.9807 6.03509 22.9807H14.4643C15.0462 22.9807 15.5179 23.4525 15.5179 24.0344C15.5179 24.6162 15.0462 25.088 14.4643 25.088H6.03509C5.45318 25.088 4.98145 24.6162 4.98145 24.0344Z" fill="#18A865" stroke="#F8F8F8" stroke-width="0.8"/>
<path fill-rule="evenodd" clip-rule="evenodd" d="M37.6438 21.9271C32.4066 21.9271 28.161 26.1727 28.161 31.4099C28.161 36.6472 32.4066 40.8928 37.6438 40.8928C42.8811 40.8928 47.1266 36.6472 47.1266 31.4099C47.1266 26.1727 42.8811 21.9271 37.6438 21.9271ZM26.0537 31.4099C26.0537 25.0088 31.2427 19.8198 37.6438 19.8198C44.0449 19.8198 49.2339 25.0088 49.2339 31.4099C49.2339 37.8111 44.0449 43.0001 37.6438 43.0001C31.2427 43.0001 26.0537 37.8111 26.0537 31.4099Z" fill="black" stroke="#F8F8F8" stroke-width="0.8"/>
<path fill-rule="evenodd" clip-rule="evenodd" d="M41.1137 29.6111C41.5253 29.1997 42.1924 29.1997 42.604 29.6111C43.0153 30.0226 43.0153 30.6898 42.604 31.1014L38.3894 35.316C37.9779 35.7273 37.3107 35.7273 36.8991 35.316L33.7382 32.155C33.3269 31.7435 33.3269 31.0763 33.7382 30.6647C34.1497 30.2534 34.8169 30.2534 35.2285 30.6647L37.6443 33.0807L41.1137 29.6111Z" fill="#18A865" stroke="#F8F8F8" stroke-width="0.8"/>
</svg>
