<svg width="9" height="9" viewBox="0 0 9 9" fill="none" xmlns="http://www.w3.org/2000/svg">
<path d="M5.62017 4.00551L8.86017 0.765508C8.93298 0.680485 8.97103 0.571118 8.96671 0.459262C8.96239 0.347406 8.91602 0.241299 8.83687 0.162146C8.75771 0.0829931 8.65161 0.036623 8.53975 0.0323024C8.4279 0.0279819 8.31853 0.0660293 8.23351 0.138841L4.99351 3.37884L1.75351 0.134396C1.66848 0.0615847 1.55912 0.0235378 1.44726 0.0278583C1.3354 0.0321788 1.2293 0.0785486 1.15014 0.157702C1.07099 0.236855 1.02462 0.342961 1.0203 0.454817C1.01598 0.566673 1.05403 0.67604 1.12684 0.761063L4.36684 4.00551L1.12239 7.24551C1.07587 7.28535 1.03808 7.33438 1.0114 7.38952C0.984728 7.44466 0.969736 7.50472 0.967372 7.56593C0.965008 7.62714 0.975322 7.68817 0.997666 7.74521C1.02001 7.80224 1.0539 7.85404 1.09722 7.89735C1.14053 7.94067 1.19233 7.97456 1.24936 7.9969C1.30639 8.01925 1.36743 8.02956 1.42864 8.0272C1.48985 8.02483 1.54991 8.00984 1.60505 7.98316C1.66019 7.95649 1.70922 7.9187 1.74906 7.87217L4.99351 4.63217L8.23351 7.87217C8.31853 7.94499 8.4279 7.98303 8.53975 7.97871C8.65161 7.97439 8.75771 7.92802 8.83687 7.84887C8.91602 7.76972 8.96239 7.66361 8.96671 7.55175C8.97103 7.4399 8.93298 7.33053 8.86017 7.24551L5.62017 4.00551Z" fill="#7E7F81"/>
</svg>
