<svg width="18" height="17" viewBox="0 0 18 17" fill="none" xmlns="http://www.w3.org/2000/svg">
<path d="M10.6 13.8C13.6168 13.8 15.1256 13.8 16.0624 12.8624C17 11.9256 17 10.4168 17 7.4C17 4.3832 17 2.8744 16.0624 1.9376C15.1256 1 13.6168 1 10.6 1H7.4C4.3832 1 2.8744 1 1.9376 1.9376C1 2.8744 1 4.3832 1 7.4C1 10.4168 1 11.9256 1.9376 12.8624C2.46 13.3856 3.16 13.6168 4.2 13.7184" stroke="#18A865" stroke-width="1.5" stroke-linecap="round" stroke-linejoin="round"/>
<path d="M6.59961 7.40005L8.39961 9.00005L11.3996 5.80005" stroke="#18A865" stroke-width="1.5" stroke-linecap="round" stroke-linejoin="round"/>
<path d="M10.6004 13.8C9.61159 13.8 8.52199 14.2 7.52759 14.716C5.92919 15.5456 5.12999 15.9608 4.73639 15.696C4.34279 15.432 4.41719 14.612 4.56679 12.9728L4.60039 12.6" stroke="#18A865" stroke-width="1.5" stroke-linecap="round"/>
</svg>
