<svg width="99" height="77" viewBox="0 0 99 77" fill="none" xmlns="http://www.w3.org/2000/svg">
<path d="M95.1813 37.4213L81.6281 22.3221C79.5315 19.9871 76.5276 18.6471 73.3832 18.6471H61.2506L62.399 8.34779C62.607 6.47941 62.004 4.60331 60.7461 3.20368C59.4881 1.80404 57.6858 1 55.8005 1H9.85111C8.62965 1 7.63833 1.98824 7.63833 3.20588C7.63833 4.42353 8.62965 5.41176 9.85111 5.41176H55.8005C56.4378 5.41176 57.0231 5.67206 57.449 6.14632C57.8739 6.62059 58.0708 7.22831 58 7.8614L52.1262 60.5588H39.8918C39.8387 57.9074 38.9524 55.4577 37.2951 53.4879C35.1454 50.9346 31.9866 49.5294 28.3986 49.5294C21.8975 49.5294 15.6674 54.3349 13.6715 60.5588H3.21278C1.99132 60.5588 1 61.5471 1 62.7647C1 63.9824 1.99132 64.9706 3.21278 64.9706H13.0021C13.0552 67.6221 13.9414 70.0717 15.5988 72.0415C17.7485 74.5949 20.9072 76 24.4953 76C30.9964 76 37.2265 71.1945 39.2224 64.9706H60.5768C60.6299 67.6221 61.5161 70.0717 63.1735 72.0415C65.3232 74.5949 68.4819 76 72.07 76C78.5711 76 84.8012 71.1945 86.7971 64.9706H89.9525C93.3602 64.9706 96.1981 62.4228 96.5543 59.0456L97.9395 45.9305C98.2659 42.8412 97.2602 39.7397 95.1813 37.4213ZM35.3312 62.3809C34.434 67.4588 29.5725 71.5882 24.4953 71.5882C22.2382 71.5882 20.2821 70.7412 18.9888 69.2059C17.6567 67.6232 17.15 65.4724 17.5615 63.1485C18.4599 58.0706 23.3214 53.9412 28.3986 53.9412C30.6556 53.9412 32.6117 54.7882 33.9051 56.3235C35.2361 57.9063 35.7428 60.057 35.3312 62.3809ZM82.9059 62.3809C82.0087 67.4588 77.1472 71.5882 72.07 71.5882C69.8129 71.5882 67.8568 70.7412 66.5635 69.2059C65.2314 67.6232 64.7247 65.4724 65.1362 63.1485C66.0346 58.0706 70.8961 53.9412 75.9733 53.9412C78.2303 53.9412 80.1864 54.7882 81.4798 56.3235C82.8108 57.9063 83.3175 60.057 82.9059 62.3809ZM93.5383 45.4695L92.1531 58.5846C92.0336 59.7096 91.0888 60.5588 89.9525 60.5588H87.4665C87.4134 57.9074 86.5271 55.4577 84.8698 53.4879C82.7201 50.9346 79.5613 49.5294 75.9733 49.5294C69.4722 49.5294 63.2421 54.3349 61.2462 60.5588H56.5783L60.7594 23.0588H73.3832C75.2696 23.0588 77.0731 23.8629 78.331 25.2647L91.8843 40.3629C93.1301 41.7537 93.7331 43.6154 93.5383 45.4695ZM74.5472 28.1853C74.1279 27.7298 73.5359 27.4706 72.9153 27.4706H67.3833C66.2327 27.4706 65.2745 28.3496 65.1783 29.4934L64.0719 42.7287C64.021 43.3441 64.2301 43.9507 64.6483 44.4062C65.0676 44.8596 65.6573 45.1176 66.2769 45.1176H85.0855C85.9629 45.1176 86.7584 44.6004 87.1113 43.8007C87.4643 42.9989 87.3094 42.0669 86.7174 41.4217L74.5472 28.1853ZM68.6822 40.7059L69.4191 31.8824H71.9416L80.0548 40.7059H68.6822ZM59.6386 73.7941C59.6386 75.0118 58.6473 76 57.4258 76H47.4683C46.2469 76 45.2555 75.0118 45.2555 73.7941C45.2555 72.5765 46.2469 71.5882 47.4683 71.5882H57.4258C58.6473 71.5882 59.6386 72.5765 59.6386 73.7941ZM12.0639 73.7941C12.0639 75.0118 11.0726 76 9.85111 76H4.31917C3.09771 76 2.10639 75.0118 2.10639 73.7941C2.10639 72.5765 3.09771 71.5882 4.31917 71.5882H9.85111C11.0726 71.5882 12.0639 72.5765 12.0639 73.7941Z" fill="black" stroke="#F8F8F8" stroke-width="1.2"/>
<path d="M27.5533 18.6471H43.0428C44.2642 18.6471 45.2555 17.6588 45.2555 16.4412C45.2555 15.2235 44.2642 14.2353 43.0428 14.2353H27.5533C26.3319 14.2353 25.3405 15.2235 25.3405 16.4412C25.3405 17.6588 26.3319 18.6471 27.5533 18.6471Z" fill="#18A865"/>
<path d="M12.0639 16.4412C12.0639 17.6588 13.0552 18.6471 14.2767 18.6471H18.7022C19.9237 18.6471 20.915 17.6588 20.915 16.4412C20.915 15.2235 19.9237 14.2353 18.7022 14.2353H14.2767C13.0552 14.2353 12.0639 15.2235 12.0639 16.4412Z" fill="#18A865"/>
<path d="M40.83 29.6765C40.83 28.4588 39.8387 27.4706 38.6172 27.4706H34.1916C32.9702 27.4706 31.9789 28.4588 31.9789 29.6765C31.9789 30.8941 32.9702 31.8824 34.1916 31.8824H38.6172C39.8387 31.8824 40.83 30.8941 40.83 29.6765Z" fill="#18A865"/>
<path d="M25.3405 27.4706H9.8511C8.62965 27.4706 7.63832 28.4588 7.63832 29.6765C7.63832 30.8941 8.62965 31.8824 9.8511 31.8824H25.3405C26.562 31.8824 27.5533 30.8941 27.5533 29.6765C27.5533 28.4588 26.562 27.4706 25.3405 27.4706Z" fill="#18A865"/>
<path d="M5.42555 40.7059C4.20409 40.7059 3.21277 41.6941 3.21277 42.9118C3.21277 44.1294 4.20409 45.1176 5.42555 45.1176H34.1916C35.4131 45.1176 36.4044 44.1294 36.4044 42.9118C36.4044 41.6941 35.4131 40.7059 34.1916 40.7059H5.42555Z" fill="#18A865"/>
<path d="M27.5533 18.6471H43.0428C44.2642 18.6471 45.2555 17.6588 45.2555 16.4412C45.2555 15.2235 44.2642 14.2353 43.0428 14.2353H27.5533C26.3319 14.2353 25.3405 15.2235 25.3405 16.4412C25.3405 17.6588 26.3319 18.6471 27.5533 18.6471Z" stroke="#F8F8F8" stroke-width="1.2"/>
<path d="M12.0639 16.4412C12.0639 17.6588 13.0552 18.6471 14.2767 18.6471H18.7022C19.9237 18.6471 20.915 17.6588 20.915 16.4412C20.915 15.2235 19.9237 14.2353 18.7022 14.2353H14.2767C13.0552 14.2353 12.0639 15.2235 12.0639 16.4412Z" stroke="#F8F8F8" stroke-width="1.2"/>
<path d="M40.83 29.6765C40.83 28.4588 39.8387 27.4706 38.6172 27.4706H34.1916C32.9702 27.4706 31.9789 28.4588 31.9789 29.6765C31.9789 30.8941 32.9702 31.8824 34.1916 31.8824H38.6172C39.8387 31.8824 40.83 30.8941 40.83 29.6765Z" stroke="#F8F8F8" stroke-width="1.2"/>
<path d="M25.3405 27.4706H9.8511C8.62965 27.4706 7.63832 28.4588 7.63832 29.6765C7.63832 30.8941 8.62965 31.8824 9.8511 31.8824H25.3405C26.562 31.8824 27.5533 30.8941 27.5533 29.6765C27.5533 28.4588 26.562 27.4706 25.3405 27.4706Z" stroke="#F8F8F8" stroke-width="1.2"/>
<path d="M5.42555 40.7059C4.20409 40.7059 3.21277 41.6941 3.21277 42.9118C3.21277 44.1294 4.20409 45.1176 5.42555 45.1176H34.1916C35.4131 45.1176 36.4044 44.1294 36.4044 42.9118C36.4044 41.6941 35.4131 40.7059 34.1916 40.7059H5.42555Z" stroke="#F8F8F8" stroke-width="1.2"/>
</svg>
