<svg width="23" height="23" viewBox="0 0 23 23" fill="none" xmlns="http://www.w3.org/2000/svg">
<path d="M9.21504 22.4004C9.1326 22.4004 9.05355 22.3677 8.99526 22.3094C8.93697 22.2511 8.90422 22.172 8.90422 22.0896V0.954459C8.90401 0.91089 8.91295 0.867763 8.93048 0.827874C8.948 0.787985 8.97372 0.752227 9.00596 0.722919C9.0382 0.693612 9.07624 0.671409 9.11761 0.657753C9.15898 0.644096 9.20277 0.639291 9.24612 0.643648L19.1703 1.64757C19.2472 1.6553 19.3185 1.69143 19.3703 1.7489C19.422 1.80637 19.4504 1.88106 19.45 1.95838V17.5756C19.45 17.658 19.4173 17.7371 19.359 17.7954C19.3007 17.8537 19.2217 17.8864 19.1392 17.8864C19.0568 17.8864 18.9777 17.8537 18.9194 17.7954C18.8612 17.7371 18.8284 17.658 18.8284 17.5756V2.23935L9.52585 1.29822V21.7337L18.8284 20.4734V15.3885C18.8284 15.3061 18.8612 15.227 18.9194 15.1687C18.9777 15.1104 19.0568 15.0777 19.1392 15.0777C19.2217 15.0777 19.3007 15.1104 19.359 15.1687C19.4173 15.227 19.45 15.3061 19.45 15.3885V20.7438C19.45 20.819 19.4228 20.8916 19.3734 20.9482C19.3239 21.0049 19.2557 21.0416 19.1812 21.0518L9.25699 22.3976C9.24309 22.3995 9.22907 22.4004 9.21504 22.4004Z" stroke-width="0.1"/>
<path d="M4.60851 21.2522C4.52608 21.2522 4.44702 21.2195 4.38873 21.1612C4.33044 21.1029 4.2977 21.0238 4.2977 20.9414V1.94899C4.2977 1.86656 4.33044 1.78751 4.38873 1.72922C4.44702 1.67093 4.52608 1.63818 4.60851 1.63818H9.21473C9.29716 1.63818 9.37621 1.67093 9.4345 1.72922C9.49279 1.78751 9.52554 1.86656 9.52554 1.94899C9.52554 2.03143 9.49279 2.11048 9.4345 2.16877C9.37621 2.22706 9.29716 2.25981 9.21473 2.25981H4.91932V20.9414C4.91932 21.0238 4.88657 21.1029 4.82829 21.1612C4.77 21.2195 4.69094 21.2522 4.60851 21.2522Z" stroke-width="0.1"/>
<path d="M6.36397 21.2522C6.28154 21.2522 6.20248 21.2194 6.1442 21.1612C6.08591 21.1029 6.05316 21.0238 6.05316 20.9414V3.76442C6.05316 3.68199 6.08591 3.60294 6.1442 3.54465C6.20248 3.48636 6.28154 3.45361 6.36397 3.45361H9.21255C9.29499 3.45361 9.37404 3.48636 9.43233 3.54465C9.49062 3.60294 9.52336 3.68199 9.52336 3.76442C9.52336 3.84686 9.49062 3.92591 9.43233 3.9842C9.37404 4.04249 9.29499 4.07523 9.21255 4.07523H6.67478V20.9414C6.67478 21.0238 6.64204 21.1029 6.58375 21.1612C6.52546 21.2194 6.4464 21.2522 6.36397 21.2522Z" stroke-width="0.1"/>
<path d="M9.21255 21.2522H1.31081C1.22838 21.2522 1.14932 21.2195 1.09103 21.1612C1.03275 21.1029 1 21.0239 1 20.9414C1 20.859 1.03275 20.7799 1.09103 20.7216C1.14932 20.6634 1.22838 20.6306 1.31081 20.6306H9.21255C9.29499 20.6306 9.37404 20.6634 9.43233 20.7216C9.49062 20.7799 9.52337 20.859 9.52337 20.9414C9.52337 21.0239 9.49062 21.1029 9.43233 21.1612C9.37404 21.2195 9.29499 21.2522 9.21255 21.2522Z" stroke-width="0.1"/>
<path d="M22.4155 21.2522H17.6576C17.5752 21.2522 17.4961 21.2195 17.4378 21.1612C17.3795 21.1029 17.3468 21.0239 17.3468 20.9414C17.3468 20.859 17.3795 20.7799 17.4378 20.7216C17.4961 20.6634 17.5752 20.6306 17.6576 20.6306H22.4155C22.4979 20.6306 22.577 20.6634 22.6353 20.7216C22.6936 20.7799 22.7263 20.859 22.7263 20.9414C22.7263 21.0239 22.6936 21.1029 22.6353 21.1612C22.577 21.2195 22.4979 21.2522 22.4155 21.2522Z" stroke-width="0.1"/>
<path d="M11.3721 12.6452C11.1499 12.6452 10.9327 12.5793 10.748 12.4559C10.5633 12.3325 10.4193 12.1571 10.3343 11.9518C10.2493 11.7466 10.227 11.5207 10.2704 11.3028C10.3137 11.0849 10.4207 10.8848 10.5778 10.7277C10.7349 10.5706 10.935 10.4636 11.1529 10.4203C11.3708 10.3769 11.5967 10.3992 11.8019 10.4842C12.0072 10.5692 12.1826 10.7132 12.306 10.8979C12.4295 11.0826 12.4953 11.2998 12.4953 11.522C12.495 11.8198 12.3766 12.1053 12.166 12.3159C11.9554 12.5264 11.6699 12.6449 11.3721 12.6452ZM11.3721 11.0203C11.2728 11.0203 11.1759 11.0497 11.0934 11.1048C11.0109 11.16 10.9466 11.2383 10.9086 11.33C10.8706 11.4216 10.8607 11.5225 10.8801 11.6198C10.8994 11.7171 10.9472 11.8065 11.0173 11.8767C11.0875 11.9468 11.1769 11.9946 11.2742 12.014C11.3715 12.0333 11.4724 12.0234 11.564 11.9854C11.6557 11.9474 11.734 11.8831 11.7892 11.8007C11.8443 11.7182 11.8737 11.6212 11.8737 11.522C11.8735 11.389 11.8206 11.2615 11.7266 11.1674C11.6326 11.0734 11.5051 11.0205 11.3721 11.0203Z" stroke-width="0.1"/>
</svg>
