<svg width="16" height="12" viewBox="0 0 16 12" fill="none" xmlns="http://www.w3.org/2000/svg">
<path d="M14.9424 5.2215C15.2979 5.6865 15.2979 6.31425 14.9424 6.7785C13.8226 8.24025 11.1361 11.25 7.99964 11.25C4.86314 11.25 2.17664 8.24025 1.05689 6.7785C0.88393 6.55585 0.790039 6.28194 0.790039 6C0.790039 5.71806 0.88393 5.44415 1.05689 5.2215C2.17664 3.75975 4.86314 0.75 7.99964 0.75C11.1361 0.75 13.8226 3.75975 14.9424 5.2215V5.2215Z" stroke="#18A865" stroke-width="1.5" stroke-linecap="round" stroke-linejoin="round"/>
<path d="M8 8.25C9.24264 8.25 10.25 7.24264 10.25 6C10.25 4.75736 9.24264 3.75 8 3.75C6.75736 3.75 5.75 4.75736 5.75 6C5.75 7.24264 6.75736 8.25 8 8.25Z" stroke="#18A865" stroke-width="1.5" stroke-linecap="round" stroke-linejoin="round"/>
</svg>
