<svg width="10" height="8" viewBox="0 0 10 8" fill="none" xmlns="http://www.w3.org/2000/svg">
<path d="M7.80903 0.963517C7.94989 0.829406 8.13735 0.755264 8.33184 0.756735C8.52634 0.758207 8.71265 0.835177 8.85147 0.971405C8.99029 1.10763 9.07077 1.29246 9.07591 1.48689C9.08105 1.68132 9.01045 1.87014 8.87902 2.01352L4.88903 7.00352C4.82042 7.07742 4.73761 7.13672 4.64556 7.17788C4.5535 7.21905 4.4541 7.24123 4.35328 7.24309C4.25246 7.24496 4.1523 7.22648 4.05878 7.18875C3.96527 7.15102 3.88032 7.09482 3.80902 7.02352L1.16302 4.37752C1.08934 4.30885 1.03024 4.22605 0.989244 4.13406C0.948252 4.04206 0.92621 3.94274 0.924433 3.84204C0.922656 3.74134 0.941181 3.64131 0.978902 3.54792C1.01662 3.45453 1.07277 3.3697 1.14399 3.29848C1.21521 3.22726 1.30004 3.17112 1.39343 3.13339C1.48682 3.09567 1.58684 3.07715 1.68755 3.07893C1.78825 3.0807 1.88756 3.10274 1.97956 3.14374C2.07156 3.18473 2.15436 3.24383 2.22302 3.31752L4.31703 5.41052L7.79003 0.985517C7.79628 0.977818 7.80295 0.970473 7.81002 0.963517H7.80903Z" fill="#18A865"/>
</svg>
