<svg width="84" height="84" viewBox="0 0 84 84" fill="none" xmlns="http://www.w3.org/2000/svg">
<path d="M41.9965 15.5805C27.4286 15.5805 15.5767 27.4324 15.5767 42.0002C15.5767 56.5681 27.4286 68.42 41.9965 68.42C56.5643 68.42 68.4162 56.5681 68.4162 42.0002C68.4162 27.4324 56.5645 15.5805 41.9965 15.5805ZM41.9965 63.6164C30.0773 63.6164 20.3803 53.9194 20.3803 42.0002C20.3803 30.0811 30.0773 20.3841 41.9965 20.3841C53.9156 20.3841 63.6126 30.0811 63.6126 42.0002C63.6126 53.9194 53.9158 63.6164 41.9965 63.6164Z" fill="black" stroke="#F8F8F8" stroke-width="2"/>
<path d="M52.3072 33.0965L39.5947 45.8088L31.6857 37.9C30.7479 36.9621 29.2271 36.9621 28.2891 37.9C27.3511 38.838 27.3511 40.3587 28.2891 41.2967L37.8963 50.9038C38.3653 51.3728 38.98 51.6074 39.5945 51.6074C40.2091 51.6074 40.8239 51.373 41.2928 50.9038L55.7035 36.4931C56.6415 35.5551 56.6415 34.0344 55.7035 33.0965C54.7659 32.1585 53.245 32.1585 52.3072 33.0965Z" fill="#18A865" stroke="#F8F8F8" stroke-width="2"/>
<path d="M79.561 25.1604C79.553 25.1555 71.1724 20.1389 71.1724 20.1389L69.2911 12.3478C68.4564 8.89069 65.2776 6.58 61.7311 6.85509L52.1809 7.5942C52.1809 7.5942 46.6797 2.73905 46.6688 2.72992C43.9615 0.423878 40.0313 0.423878 37.324 2.72992C37.3133 2.73905 31.8119 7.5942 31.8119 7.5942L22.2617 6.85509C18.7437 6.58192 15.5892 8.85226 14.723 12.2617L12.1041 20.6065C12.1041 20.6065 4.44922 25.1542 4.43913 25.1604C1.40919 27.0226 0.19468 30.7603 1.55153 34.0479L4.81926 41.9666L1.55153 49.8852C0.19468 53.1727 1.40919 56.9104 4.43929 58.7726C4.44858 58.7784 12.8129 63.7623 12.8129 63.7623L14.702 71.5852C15.4917 74.8563 18.38 77.1004 21.6922 77.1001C22.1988 77.1001 21.6297 77.1193 31.7128 76.3465C31.7128 76.3465 37.3152 81.2629 37.3242 81.2704C38.6778 82.4234 40.3372 83 41.9966 83C43.656 83 45.3154 82.4234 46.6691 81.2704C46.6781 81.2627 52.2805 76.3465 52.2805 76.3465L61.7312 77.078C65.2766 77.3519 68.4567 75.0424 69.2913 71.5852L71.1725 63.794C81.4277 57.6553 79.2533 58.9625 79.5612 58.7725C82.591 56.9103 83.8055 53.1726 82.4486 49.885L79.1809 41.9663L82.4486 34.0476C83.8053 30.7603 82.591 27.0228 79.561 25.1604ZM74.3623 42.8828L78.0082 51.7177C78.4591 52.8101 78.0583 54.0516 77.0555 54.6743L67.8408 60.1903C67.2877 60.5213 66.8909 61.0607 66.7396 61.6873L64.6217 70.4581C64.3436 71.6104 63.2855 72.3801 62.1017 72.289L51.6421 71.4794C50.9979 71.4296 50.3589 71.6419 49.8726 72.0688L43.5428 77.6235C42.6443 78.3796 41.3486 78.3796 40.4502 77.6232L34.1207 72.0688C33.6342 71.6419 32.995 71.4291 32.3512 71.4794L21.8915 72.289C20.7087 72.3802 19.6497 71.6104 19.3716 70.458L17.2453 61.6525C17.0937 61.0244 16.6952 60.4838 16.14 60.153L6.94292 54.6729C5.94154 54.0497 5.54156 52.8093 5.99213 51.7176L9.63806 42.8827C9.88032 42.2958 9.88032 41.6371 9.63806 41.0502L5.99165 32.2153C5.5414 31.1243 5.94089 29.8845 6.94116 29.261L15.3474 24.267C15.856 23.9648 16.2351 23.4858 16.4122 22.9213C19.5102 13.044 19.3354 13.6238 19.3713 13.4751C19.6494 12.3229 20.7055 11.552 21.8912 11.6443L32.4543 12.4618C33.1025 12.5118 33.742 12.2976 34.2289 11.868L40.4524 6.37521C41.3496 5.62168 42.6427 5.62168 43.54 6.37489L49.7639 11.868C50.2508 12.2979 50.8919 12.5118 51.5385 12.4618L62.1016 11.6443C63.2831 11.553 64.3434 12.3227 64.6215 13.4752L66.7395 22.2459C66.8908 22.8725 67.2875 23.4119 67.8406 23.7431L77.0553 29.2589C78.0582 29.8816 78.4591 31.123 78.008 32.2153L74.3621 41.0502C74.12 41.6372 74.12 42.296 74.3623 42.8828Z" fill="black" stroke="#F8F8F8" stroke-width="2"/>
</svg>
