<svg width="18" height="18" viewBox="0 0 18 18" fill="none" xmlns="http://www.w3.org/2000/svg">
<path d="M10.4416 9.42781C10.4416 10.321 9.71756 11.0451 8.82435 11.0451C7.93115 11.0451 7.20709 10.321 7.20709 9.42781C7.20709 8.5346 7.93115 7.81055 8.82435 7.81055C9.71756 7.81055 10.4416 8.5346 10.4416 9.42781Z" fill="#7E7F81"/>
<path d="M12.6075 6.56729C12.5298 6.35663 12.4057 6.16594 12.2446 6.00943C12.0881 5.84827 11.8975 5.72424 11.6867 5.6465C11.5158 5.5801 11.2589 5.50107 10.7859 5.47954C10.2742 5.4562 10.1208 5.45117 8.82531 5.45117C7.52972 5.45117 7.3763 5.45607 6.86472 5.47941C6.39169 5.50107 6.13473 5.5801 5.96391 5.6465C5.75311 5.72424 5.56243 5.84827 5.40604 6.00943C5.24488 6.16594 5.12085 6.3565 5.04298 6.56729C4.97658 6.73825 4.89755 6.9952 4.87602 7.46824C4.85268 7.97982 4.84766 8.13324 4.84766 9.42883C4.84766 10.7243 4.85268 10.8777 4.87602 11.3894C4.89755 11.8625 4.97658 12.1193 5.04298 12.2902C5.12085 12.501 5.24475 12.6916 5.40591 12.8481C5.56243 13.0093 5.75298 13.1333 5.96378 13.211C6.13473 13.2776 6.39169 13.3566 6.86472 13.3781C7.3763 13.4015 7.52959 13.4064 8.82518 13.4064C10.1209 13.4064 10.2743 13.4015 10.7858 13.3781C11.2588 13.3566 11.5158 13.2776 11.6867 13.211C12.1099 13.0478 12.4443 12.7134 12.6075 12.2902C12.6739 12.1193 12.7529 11.8625 12.7746 11.3894C12.7979 10.8777 12.8028 10.7243 12.8028 9.42883C12.8028 8.13324 12.7979 7.97982 12.7746 7.46824C12.7531 6.9952 12.674 6.73825 12.6075 6.56729ZM8.82531 11.9201C7.44927 11.9201 6.3338 10.8047 6.3338 9.4287C6.3338 8.05266 7.44927 6.93731 8.82531 6.93731C10.2012 6.93731 11.3167 8.05266 11.3167 9.4287C11.3167 10.8047 10.2012 11.9201 8.82531 11.9201ZM11.4152 7.42105C11.0937 7.42105 10.833 7.16036 10.833 6.83881C10.833 6.51727 11.0937 6.25658 11.4152 6.25658C11.7367 6.25658 11.9974 6.51727 11.9974 6.83881C11.9973 7.16036 11.7367 7.42105 11.4152 7.42105Z" fill="#7E7F81"/>
<path d="M8.82436 0.978516C4.15862 0.978516 0.375 4.76214 0.375 9.42787C0.375 14.0936 4.15862 17.8772 8.82436 17.8772C13.4901 17.8772 17.2737 14.0936 17.2737 9.42787C17.2737 4.76214 13.4901 0.978516 8.82436 0.978516ZM13.6469 11.4282C13.6234 11.9447 13.5413 12.2973 13.4214 12.6059C13.1693 13.2576 12.6541 13.7728 12.0024 14.0249C11.6939 14.1448 11.3411 14.2268 10.8248 14.2504C10.3074 14.274 10.1421 14.2797 8.82449 14.2797C7.50672 14.2797 7.34157 14.274 6.82406 14.2504C6.3077 14.2268 5.95496 14.1448 5.64644 14.0249C5.32257 13.9031 5.02939 13.7121 4.78701 13.4652C4.54024 13.223 4.3493 12.9297 4.22747 12.6059C4.10756 12.2974 4.02544 11.9447 4.00197 11.4283C3.97812 10.9108 3.97258 10.7455 3.97258 9.42787C3.97258 8.11024 3.97812 7.94495 4.00184 7.42757C4.02531 6.91109 4.10731 6.55847 4.22721 6.24982C4.34904 5.92609 4.54011 5.63278 4.78701 5.39052C5.02926 5.14363 5.32257 4.95269 5.64631 4.83085C5.95496 4.71095 6.30757 4.62895 6.82406 4.60536C7.34144 4.58177 7.50672 4.57609 8.82436 4.57609C10.142 4.57609 10.3073 4.58177 10.8247 4.60549C11.3411 4.62895 11.6938 4.71095 12.0024 4.83072C12.3261 4.95256 12.6195 5.14363 12.8618 5.39052C13.1086 5.63291 13.2997 5.92609 13.4214 6.24982C13.5414 6.55847 13.6234 6.91109 13.647 7.42757C13.6706 7.94495 13.6761 8.11024 13.6761 9.42787C13.6761 10.7455 13.6706 10.9108 13.6469 11.4282Z" fill="#7E7F81"/>
</svg>
