<svg width="19" height="24" viewBox="0 0 19 24" fill="none" xmlns="http://www.w3.org/2000/svg">
<path d="M9.29785 10.9148H8.08508V11.7233H9.29785V10.9148Z"/>
<path d="M19 21.0212H16.5745V1.96464C16.5745 1.76736 16.4318 1.59879 16.2369 1.56604L6.93904 0.00561934C6.82221 -0.0141892 6.70215 0.0189598 6.61119 0.0957683C6.52023 0.172577 6.46809 0.285364 6.46809 0.404215V0.80847H2.42553C2.20198 0.80847 2.02128 0.989577 2.02128 1.21273V21.4255H0V22.234H2.42553H6.46809V22.6383C6.46809 22.7543 6.51781 22.8646 6.60513 22.9414C6.67951 23.0069 6.77451 23.0425 6.87234 23.0425C6.88892 23.0425 6.90589 23.0417 6.92287 23.0393L16.2207 21.869C16.2652 21.8633 16.306 21.8483 16.3449 21.8293H19V21.0212ZM2.82979 21.4255V1.61698H6.46809V21.4255H2.82979ZM7.2766 21.8297V21.4255V1.21273V0.882045L15.766 2.30664V21.0212V21.1118L7.2766 22.1802V21.8297Z"/>
</svg>
