<svg width="10" height="13" viewBox="0 0 10 13" fill="none" xmlns="http://www.w3.org/2000/svg">
<path d="M5 0C2.24167 0 0 2.21882 0 4.94904C0 6.61521 0.975 8.00919 2.10833 8.9825C2.46667 9.28769 3.09167 9.77435 3.65 10.492C4.26667 11.2921 4.825 12.1499 5 12.7273C5.175 12.1499 5.73333 11.2921 6.35 10.492C6.90833 9.77435 7.53333 9.28769 7.89167 8.9825C9.025 8.00919 10 6.61521 10 4.94904C10 2.21882 7.75833 0 5 0ZM5 2.11159C5.37646 2.11159 5.74923 2.18498 6.09703 2.32758C6.44483 2.47017 6.76084 2.67918 7.02704 2.94266C7.29323 3.20614 7.50439 3.51894 7.64845 3.86319C7.79252 4.20745 7.86667 4.57642 7.86667 4.94904C7.86667 5.32166 7.79252 5.69063 7.64845 6.03488C7.50439 6.37914 7.29323 6.69193 7.02704 6.95542C6.76084 7.2189 6.44483 7.4279 6.09703 7.5705C5.74923 7.71309 5.37646 7.78648 5 7.78648C4.23971 7.78648 3.51056 7.48754 2.97296 6.95542C2.43536 6.42329 2.13333 5.70157 2.13333 4.94904C2.13333 4.1965 2.43536 3.47478 2.97296 2.94266C3.51056 2.41053 4.23971 2.11159 5 2.11159Z" fill="black"/>
</svg>
