<svg width="49" height="49" viewBox="0 0 49 49" fill="none" xmlns="http://www.w3.org/2000/svg">
<path fill-rule="evenodd" clip-rule="evenodd" d="M20.1747 0.186348C19.9839 0.308221 19.5417 0.70952 19.192 1.07808C18.8422 1.44653 18.4156 1.82345 18.2439 1.91565C18.0721 2.00785 17.799 2.08322 17.637 2.08322C17.4441 2.08322 17.3421 2.01822 17.3421 1.89528C17.3421 1.7919 17.4247 1.41815 17.5255 1.06466C17.6264 0.711286 17.6801 0.345431 17.6448 0.251818C17.6096 0.158087 17.4509 0.0814305 17.2924 0.0814305C17.1339 0.0814305 16.4429 0.373691 15.757 0.730951C15.0709 1.08809 14.0581 1.71077 13.5064 2.11454C12.9547 2.51819 11.861 3.44125 11.0761 4.16543C10.2912 4.88972 9.18937 6.01178 8.6276 6.65894C8.06594 7.30611 7.16566 8.40921 6.62701 9.11019C6.08836 9.81117 5.05789 11.2855 4.33715 12.3865C3.61641 13.4875 2.76249 14.8773 2.43969 15.4752C2.1169 16.0729 1.64681 17.0532 1.395 17.6536C1.14319 18.2539 0.805831 19.275 0.645359 19.9227C0.484886 20.5703 0.274006 21.6634 0.176774 22.3516C0.0795426 23.04 0 24.2867 0 25.122C0 25.9572 0.0544543 27.0898 0.121048 27.6385C0.187758 28.1873 0.346496 29.1662 0.473903 29.8138C0.601425 30.4615 0.934741 31.6923 1.21453 32.549C1.49443 33.4057 2.01539 34.704 2.37229 35.4339C2.72919 36.164 3.3542 37.2646 3.76128 37.8798C4.16836 38.4951 4.88956 39.4518 5.36392 40.006C5.83829 40.56 6.60736 41.3316 7.07293 41.7207C7.53863 42.1097 8.04826 42.5174 8.20549 42.6267L8.49129 42.8254L8.14768 42.8318C7.87761 42.8367 7.9501 42.8856 8.48551 43.0599C8.86045 43.1818 9.5628 43.4828 10.0463 43.7288C10.5299 43.9749 11.3678 44.4749 11.9083 44.8401C12.4488 45.2052 13.3332 45.7457 13.8737 46.0411C14.4142 46.3366 15.4428 46.8219 16.1594 47.1196C16.8761 47.4174 18.1074 47.8411 18.8956 48.061C19.6839 48.2811 20.9966 48.5824 21.8126 48.7306C23.1023 48.9648 23.6818 49 26.2444 49C28.807 49 29.3866 48.9648 30.6763 48.7306C31.4923 48.5824 32.805 48.2811 33.5932 48.061C34.3815 47.8411 35.5984 47.4225 36.2976 47.1308C36.9966 46.8391 37.8431 46.4591 38.1786 46.2863C38.5141 46.1134 39.2471 45.6877 39.8075 45.3404C40.3679 44.993 41.2523 44.3812 41.7729 43.9809C42.2935 43.5806 43.2657 42.6927 43.9334 42.008C44.6011 41.3232 45.4987 40.2598 45.9281 39.6452C46.3576 39.0304 46.9896 37.9446 47.3325 37.2322C47.6754 36.5198 48.0903 35.513 48.2546 34.9949C48.4189 34.4768 48.6352 33.6555 48.7353 33.1698C48.8356 32.684 48.9478 31.7563 48.9848 31.108C49.0218 30.4599 48.9888 28.8703 48.9112 27.5755C48.8337 26.2808 48.6677 24.6386 48.5424 23.9262C48.4169 23.2138 48.1592 22.1585 47.9695 21.5812C47.7799 21.0037 47.4126 20.1031 47.1535 19.5796C46.8944 19.0562 46.4628 18.2834 46.1945 17.8622C45.9261 17.4411 45.3872 16.6931 44.9966 16.1998C44.6061 15.7067 43.846 14.8784 43.3076 14.3593C42.7693 13.8404 41.9051 13.0906 41.3874 12.6931C40.8695 12.2957 39.9432 11.6694 39.329 11.3012C38.7147 10.933 37.8216 10.4769 37.3442 10.2878C36.8668 10.0987 36.0861 9.8711 35.6092 9.78196C35.1323 9.69294 33.8447 9.5852 32.7477 9.54257C31.6508 9.49983 30.7534 9.50266 30.7534 9.54882C30.7534 9.59486 30.9879 9.73828 31.2745 9.86734C31.5611 9.99651 32.374 10.1749 33.0807 10.2638C33.7876 10.3527 34.4233 10.484 34.4935 10.5555C34.5824 10.646 34.5851 10.7441 34.5023 10.8776C34.4369 10.9834 34.2047 11.1673 33.9864 11.2866C33.745 11.4185 33.3512 11.5034 32.9811 11.5034C32.5715 11.5034 31.9283 11.3478 31.0139 11.0278C30.2665 10.7663 29.2388 10.4487 28.7301 10.3221C28.2214 10.1955 27.4662 10.0917 27.0519 10.0912C26.5375 10.0906 26.1709 10.1598 25.8957 10.3095C25.6222 10.4583 25.4815 10.6258 25.4571 10.8315C25.4335 11.0306 25.4929 11.1723 25.6305 11.2452C25.7457 11.3061 26.1519 11.3923 26.5335 11.4367C26.915 11.4811 27.3181 11.5442 27.4295 11.5772C27.5525 11.6136 27.6318 11.7523 27.6318 11.9312C27.6318 12.093 27.5808 12.3223 27.5186 12.4408C27.4564 12.5593 27.2406 12.7147 27.0389 12.7863C26.8373 12.8579 26.3649 12.9164 25.9892 12.9164C25.6134 12.9164 24.9363 12.9748 24.4843 13.0463C24.0325 13.1176 23.4504 13.2524 23.1908 13.3456C22.9314 13.4389 22.5499 13.6823 22.3429 13.8864L21.9668 14.2577L20.2037 14.3503C19.2339 14.4011 18.0939 14.5008 17.6704 14.5715C17.2468 14.6424 16.8046 14.7715 16.6878 14.8585C16.571 14.9455 16.5178 15.06 16.5697 15.1127C16.6216 15.1656 17.038 15.228 17.495 15.2515C17.952 15.275 19.2416 15.2367 20.3607 15.1664C21.4797 15.0961 22.8062 14.9563 23.3083 14.8558C23.8104 14.7552 25.0218 14.6219 26.0003 14.5596C27.1544 14.4862 28.5757 14.4873 30.0468 14.5629C31.2939 14.6271 32.9456 14.7853 33.7173 14.9143C34.489 15.0435 35.5555 15.2879 36.0874 15.4577C36.6192 15.6274 37.4014 15.9508 37.8255 16.1761C38.2497 16.4015 38.9037 16.869 39.2789 17.2148C39.6542 17.5607 40.2241 18.232 40.5453 18.7065C40.8666 19.1811 41.337 19.9933 41.5905 20.5114C41.844 21.0295 42.119 21.6654 42.2014 21.9244C42.2838 22.1835 42.4235 22.5717 42.5117 22.7872L42.6722 23.179L42.9065 22.8755C43.0354 22.7087 43.2165 22.5721 43.3088 22.5721C43.4011 22.5721 43.5248 22.7011 43.5838 22.8589C43.6427 23.0167 43.7516 23.7187 43.8258 24.4191C43.9 25.1195 43.9285 26.0469 43.8891 26.48C43.8497 26.9132 43.7675 27.4014 43.7065 27.5651C43.6454 27.7287 43.6378 27.8893 43.6896 27.9219C43.7414 27.9544 43.8824 27.9051 44.0031 27.812C44.1237 27.719 44.2603 27.6412 44.3065 27.6392C44.3528 27.6371 44.0509 28.1635 43.6357 28.8089C43.2205 29.4543 42.6578 30.4743 42.3855 31.0757C42.113 31.6769 41.6911 32.7252 41.4478 33.4053C41.2047 34.0853 40.7064 35.446 40.3406 36.429C39.9748 37.4121 39.4663 38.5812 39.2107 39.0269C38.9551 39.4727 38.5214 40.0465 38.2471 40.302C37.9726 40.5575 37.3579 40.9652 36.881 41.2078C36.404 41.4504 35.5976 41.7515 35.0889 41.8771C34.5802 42.0025 33.6177 42.1904 32.9501 42.2946C32.2267 42.4076 30.5682 42.5122 28.8458 42.5534C27.0019 42.5976 25.3995 42.5724 24.4203 42.4838C23.5759 42.4075 22.4054 42.2205 21.819 42.0683C21.2326 41.9162 20.4516 41.6553 20.0836 41.4887C19.7155 41.3222 18.9611 40.8859 18.4072 40.5194C17.8532 40.1528 16.6976 39.3171 15.8392 38.6622C14.9807 38.0073 13.8064 36.9938 13.2297 36.4098C12.6529 35.8259 11.9706 35.0302 11.7135 34.6417C11.4563 34.2531 11.063 33.5642 10.8393 33.1109C10.6156 32.6575 10.2993 31.856 10.1364 31.3298C9.97335 30.8035 9.74605 29.9027 9.63125 29.328C9.46222 28.4817 9.42383 27.7348 9.42915 25.3981C9.43459 22.9717 9.47551 22.2882 9.68651 21.0972C9.82455 20.3184 10.0429 19.3689 10.1719 18.9872C10.3008 18.6055 10.6189 17.8915 10.8788 17.4005C11.1387 16.9095 11.6255 16.1621 11.9605 15.7396C12.2956 15.3171 12.8501 14.6908 13.1927 14.3478C13.5355 14.0048 14.1801 13.4405 14.6252 13.0939C15.0703 12.7472 16.0406 12.0901 16.7814 11.6337C17.5222 11.1773 18.8228 10.434 19.6718 9.98167C20.5206 9.5295 21.9215 8.87103 22.7848 8.51837C23.648 8.1657 24.6771 7.71129 25.0715 7.50841C25.466 7.30564 25.9988 6.94649 26.2553 6.7104C26.512 6.47431 26.7921 6.14284 26.8779 5.97386C26.9637 5.80477 27.0691 5.47518 27.1122 5.24144C27.1583 4.99169 27.1364 4.71344 27.0595 4.56696C26.9475 4.35383 26.8912 4.33734 26.6731 4.4538C26.5328 4.52869 26.2226 4.76785 25.984 4.9851C25.7453 5.20247 25.4722 5.38027 25.377 5.38027C25.2818 5.38027 25.2039 5.32234 25.2039 5.25157C25.2039 5.1808 25.3406 4.73075 25.5077 4.25138C25.7392 3.58738 25.7979 3.23613 25.7546 2.77678C25.7234 2.44507 25.7498 1.96464 25.8135 1.709C25.8945 1.38424 25.8916 1.20573 25.8038 1.11635C25.7134 1.02427 25.5927 1.04558 25.3732 1.19207C25.1977 1.30923 24.896 1.7647 24.6628 2.26479C24.4129 2.8008 24.1685 3.16288 24.0253 3.20904C23.8977 3.25037 23.7362 3.226 23.6664 3.15488C23.5965 3.08376 23.5443 2.82682 23.55 2.5839L23.5607 2.14209L23.3706 2.43235C23.2661 2.5919 22.9494 3.03677 22.6669 3.42088C22.3843 3.80487 21.919 4.27034 21.6327 4.45533C21.3463 4.6402 20.9663 4.79151 20.7879 4.79151C20.5574 4.79151 20.4637 4.73252 20.4637 4.58733C20.4637 4.475 21.0482 3.78615 21.7625 3.05655C22.4768 2.32696 23.0072 1.72996 22.9412 1.72996C22.8753 1.72996 22.5671 1.89411 22.2564 2.09476C21.9458 2.2954 21.3597 2.7464 20.9542 3.09683C20.5486 3.44726 20.0714 3.81052 19.8939 3.90402C19.5878 4.06522 19.5641 4.05874 19.4393 3.77967C19.3669 3.61764 19.3084 3.31549 19.3094 3.10801C19.3107 2.84366 19.5368 2.38125 20.0654 1.56181C20.4803 0.918883 20.8046 0.313991 20.7862 0.217434C20.7678 0.120995 20.7007 0.024674 20.6371 0.00336087C20.5736 -0.0179523 20.3655 0.0643564 20.1747 0.186348ZM21.5277 10.8123C21.3181 10.8739 21.1159 11.0056 21.0783 11.1051C21.0409 11.2048 21.0972 11.3748 21.2035 11.4831C21.3432 11.6253 21.5966 11.6797 22.1154 11.6786C22.5106 11.6779 22.9991 11.6068 23.2012 11.5207C23.4033 11.4345 23.5993 11.2827 23.6368 11.1833C23.6742 11.0838 23.6457 10.9298 23.5732 10.8408C23.4838 10.7312 23.1945 10.6825 22.6752 10.6897C22.2537 10.6956 21.7373 10.7507 21.5277 10.8123ZM18.9607 13.3977L18.6717 13.6382L19.6036 13.5924C20.1161 13.5673 20.6103 13.4989 20.7019 13.4406C20.8239 13.3628 20.7447 13.3119 20.4059 13.25C20.1516 13.2035 19.7874 13.1636 19.5966 13.1613C19.4059 13.159 19.1197 13.2654 18.9607 13.3977ZM26.9381 16.5269C26.7512 16.6298 26.3382 16.676 25.7689 16.6575C25.1617 16.6377 24.83 16.6785 24.6995 16.7888C24.5718 16.8967 24.5102 17.1346 24.5102 17.5195C24.5102 17.9739 24.5449 18.0765 24.6806 18.0234C24.7744 17.9868 24.9342 18.0414 25.0358 18.145C25.1373 18.2483 25.3728 18.333 25.559 18.333C25.8167 18.333 25.8976 18.3874 25.8976 18.5609C25.8976 18.6861 25.8468 18.9246 25.7849 19.0907C25.6985 19.322 25.5911 19.3928 25.3265 19.3928C25.1363 19.3928 24.7449 19.3112 24.4566 19.2115C23.9848 19.0483 23.8727 19.0483 23.3333 19.2115C23.0037 19.3112 22.4963 19.3957 22.2058 19.3994C21.9154 19.403 21.4436 19.5059 21.1574 19.6283L20.6371 19.8506L21.0129 19.8572C21.2195 19.8608 21.3886 19.9168 21.3886 19.9815C21.3886 20.0463 21.2971 20.0993 21.1853 20.0993C21.0734 20.0993 20.9168 20.2053 20.8374 20.3348C20.7117 20.5397 20.7219 20.5703 20.9158 20.5703C21.0382 20.5703 21.2208 20.6024 21.3214 20.6418C21.4219 20.6811 21.5043 20.7826 21.5043 20.8675C21.5043 20.9523 21.4393 21.0484 21.3597 21.0811C21.2803 21.1137 21.3513 21.1447 21.5175 21.1497C21.6838 21.1548 21.9457 21.2598 22.0994 21.383C22.2532 21.5062 22.5073 21.6255 22.6642 21.648C22.8865 21.6799 22.9486 21.7576 22.9458 22.0002C22.9425 22.2938 22.9719 22.3104 23.4661 22.2945C23.9759 22.2782 23.9909 22.2879 24.026 22.6578C24.0607 23.0241 24.0315 23.0525 23.2167 23.4438C22.7517 23.6671 22.0703 23.9156 21.7024 23.9962C21.3344 24.0766 21.0923 24.1796 21.1643 24.225C21.242 24.2739 21.1427 24.3616 20.9201 24.4407C20.7137 24.5139 20.4382 24.5739 20.3078 24.5739C20.1287 24.5739 20.1032 24.6071 20.2039 24.7096C20.2975 24.8049 20.3022 24.9123 20.2197 25.0692C20.155 25.1923 19.9393 25.3939 19.7402 25.5172C19.4408 25.7026 19.4121 25.7544 19.5742 25.8178C19.6819 25.8598 19.77 25.96 19.77 26.0403C19.77 26.1207 19.6567 26.2378 19.5183 26.3008C19.2978 26.401 19.3544 26.4402 19.977 26.6182C20.3678 26.7298 20.7182 26.8719 20.7558 26.934C20.7935 26.9959 20.7301 27.0501 20.6151 27.0541C20.4589 27.0597 20.4791 27.0926 20.695 27.184C20.877 27.261 21.5478 27.2791 22.5076 27.2328C23.9134 27.165 24.0429 27.1764 24.184 27.3805C24.268 27.5021 24.4538 27.6393 24.5969 27.6853C24.7401 27.7314 24.8571 27.8095 24.8571 27.8587C24.8571 27.908 24.5895 28.076 24.2626 28.2321C23.9356 28.388 23.5556 28.5005 23.4181 28.4823C23.2436 28.459 23.0174 28.6175 22.6692 29.0072C22.2277 29.5013 22.1541 29.5434 22.0311 29.3719C21.9546 29.2653 21.8246 28.9502 21.7423 28.6718C21.66 28.3932 21.5769 28.1058 21.5578 28.0332C21.5323 27.937 21.355 27.9343 20.9065 28.0232C20.5677 28.0903 20.1733 28.2221 20.0302 28.316C19.887 28.4099 19.77 28.556 19.77 28.6405C19.77 28.7251 19.614 28.8292 19.4232 28.8718C19.2324 28.9144 19.0764 28.9951 19.0764 29.0508C19.0764 29.1066 19.1339 29.1886 19.2043 29.2328C19.2935 29.289 19.2848 29.344 19.1754 29.4146C19.0892 29.4703 18.8625 29.5184 18.6717 29.5213C18.4809 29.5244 18.2302 29.6 18.1144 29.6894C17.9278 29.8335 17.9245 29.8634 18.0848 29.9549C18.2483 30.048 18.2484 30.0829 18.0863 30.3185C17.9845 30.4666 17.7852 30.5792 17.6246 30.5792C17.4692 30.5792 17.3421 30.6322 17.3421 30.697C17.3421 30.7617 17.4202 30.8147 17.5156 30.8147C17.6109 30.8147 17.689 30.8942 17.689 30.9913C17.689 31.0885 17.5892 31.168 17.4672 31.168C17.3453 31.168 17.1632 31.2001 17.0626 31.2395C16.962 31.2788 16.8797 31.3547 16.8797 31.4083C16.8797 31.4618 17.0228 31.5224 17.1976 31.5429C17.4808 31.576 17.5194 31.6336 17.5506 32.0695C17.5767 32.4349 17.5322 32.599 17.3752 32.7171C17.2594 32.8041 17.0746 33.0193 16.9644 33.1951C16.8542 33.3709 16.7641 33.6026 16.7641 33.7099C16.7641 33.87 16.7952 33.8787 16.9375 33.7585C17.0765 33.641 17.1109 33.6423 17.1109 33.7646C17.1109 33.8599 17.2115 33.8212 17.3784 33.6613C17.5256 33.5204 17.7303 33.4053 17.8332 33.4053C17.9361 33.4053 18.0533 33.5112 18.0936 33.6408C18.134 33.7703 18.2461 33.8763 18.3427 33.8763C18.4393 33.8763 18.5745 34.0277 18.6431 34.2128C18.7596 34.5271 18.803 34.5463 19.2979 34.5019C19.5893 34.4756 20.0155 34.3978 20.2448 34.3287C20.5449 34.2382 20.7288 34.2398 20.9019 34.3341C21.034 34.406 21.4578 34.465 21.8436 34.465H22.5449L22.8627 33.8779C23.0645 33.5055 23.2586 33.2903 23.3939 33.2892C23.5111 33.2882 23.6342 33.1815 23.6674 33.052C23.7098 32.8868 23.8251 32.8165 24.0534 32.8165C24.2615 32.8165 24.4026 32.8908 24.4443 33.0226C24.4803 33.1358 24.6716 33.3223 24.8697 33.4368C25.1536 33.6009 25.2155 33.7006 25.1622 33.9078C25.1249 34.0523 25.1556 34.3428 25.2303 34.5533C25.305 34.7639 25.4349 34.936 25.5191 34.936C25.6032 34.936 25.7221 35.0699 25.7831 35.2335C25.8442 35.397 25.973 35.5617 26.0693 35.5993C26.2176 35.6573 26.2444 36.0248 26.2444 37.9958C26.2444 39.9214 26.2145 40.3491 26.071 40.4704C25.9756 40.5511 25.8976 40.6786 25.8976 40.7538C25.8976 40.8291 25.7415 40.9845 25.5508 41.0993C25.36 41.2141 25.2039 41.3766 25.2039 41.4604C25.2039 41.5675 25.4884 41.6332 26.1577 41.6809C26.6823 41.7182 27.5408 41.7184 28.0654 41.6815C28.8695 41.6248 29.0192 41.5821 29.0192 41.4093C29.0192 41.2965 28.9157 41.1768 28.7893 41.1431C28.663 41.1094 28.5102 40.9499 28.45 40.7886C28.3898 40.6271 28.2729 40.4722 28.1902 40.4441C28.0767 40.4055 28.0295 39.872 27.9965 38.2534L27.9529 36.1136H28.3125C28.5108 36.1136 28.7701 36.0139 28.8902 35.8917C29.01 35.7696 29.2945 35.6071 29.5223 35.5306C29.7746 35.4458 30.1373 35.154 30.4498 34.7846C30.9196 34.2292 30.9859 34.1894 31.2339 34.3138C31.3829 34.3886 31.7587 34.5592 32.0687 34.6929C32.3789 34.8267 32.8062 34.936 33.0185 34.936C33.2769 34.936 33.4426 35.0087 33.5199 35.156C33.5835 35.2769 33.7919 35.4078 33.9828 35.4467C34.174 35.4856 34.4487 35.6381 34.5935 35.7856L34.8569 36.0539L34.9604 35.5538C35.0559 35.0932 35.0929 35.0538 35.4298 35.0538C35.6383 35.0538 35.9638 34.9273 36.1873 34.7594C36.4028 34.5975 36.6441 34.465 36.7235 34.465C36.8029 34.465 36.9457 34.3518 37.041 34.2133C37.1983 33.9844 37.1931 33.9443 36.9836 33.7715C36.8362 33.65 36.7175 33.3482 36.6541 32.934C36.5995 32.5779 36.4765 32.0747 36.3807 31.8156C36.2315 31.4127 36.23 31.3391 36.3703 31.3066C36.4603 31.2856 36.5341 31.2197 36.5341 31.1601C36.5341 31.1005 36.3129 30.888 36.0427 30.6879C35.7726 30.4878 35.5666 30.249 35.5854 30.1573C35.6073 30.0491 35.5191 29.9905 35.334 29.9905C35.1771 29.9905 34.7835 29.928 34.4593 29.8519C34.1307 29.7746 33.929 29.6759 34.0035 29.6291C34.0928 29.5729 34.0516 29.498 33.8805 29.4048C33.7393 29.3276 33.4736 29.0968 33.2902 28.8916C33.1068 28.6865 32.9553 28.4614 32.9534 28.3917C32.9515 28.3186 33.091 28.286 33.2833 28.3147C33.4664 28.3422 33.6516 28.3065 33.6947 28.2355C33.741 28.1592 33.6831 28.1064 33.5529 28.1064C33.4318 28.1064 33.2466 28.0095 33.1414 27.8911C33.0362 27.7726 32.9493 27.5739 32.9483 27.4495C32.9473 27.3251 32.9009 27.15 32.8453 27.0606C32.766 26.9329 32.727 26.9527 32.6648 27.152C32.6214 27.2918 32.4726 27.4799 32.3343 27.5699C32.196 27.66 31.7448 27.7673 31.3315 27.8083C30.8371 27.8574 30.4019 27.8289 30.0597 27.7251C29.6272 27.5941 29.5333 27.5137 29.5029 27.2482C29.4735 26.9923 29.5288 26.9048 29.7822 26.8067C29.956 26.7393 30.3713 26.6731 30.7051 26.6594L31.3118 26.6345L31.2461 26.0615C31.1836 25.516 31.1924 25.4924 31.4294 25.569C31.5663 25.6133 31.6783 25.6174 31.6783 25.5781C31.6783 25.5387 31.5743 25.2987 31.4471 25.0449C31.3199 24.791 31.2159 24.4757 31.2159 24.344C31.2159 24.2125 31.1118 24.0387 30.9846 23.9578C30.8574 23.8769 30.7534 23.7458 30.7534 23.6666C30.7534 23.5872 30.6528 23.4676 30.5298 23.4005C30.4068 23.3335 30.2068 23.2786 30.0853 23.2786C29.9638 23.2786 29.7721 23.1747 29.6592 23.0478C29.5185 22.8894 29.4777 22.722 29.5289 22.5138C29.5712 22.3423 29.7279 22.1624 29.8895 22.0998C30.0468 22.0389 30.1753 21.9209 30.1753 21.8375C30.1753 21.7542 30.2869 21.6336 30.4232 21.5697C30.5596 21.5057 30.7287 21.268 30.7989 21.0413C30.8881 20.7539 31.0055 20.6177 31.1869 20.5915C31.3301 20.5709 31.4471 20.5293 31.4471 20.4993C31.4471 20.4693 31.265 20.2592 31.0424 20.0325C30.8199 19.8058 30.6378 19.5393 30.6378 19.44C30.6378 19.3407 30.6917 19.157 30.7574 19.0317C30.8605 18.8358 30.8381 18.804 30.5982 18.804C30.4448 18.804 30.2608 18.7323 30.1894 18.6446C30.1101 18.5473 30.0853 18.2607 30.1255 17.9086C30.1861 17.3797 30.1771 17.3504 30.0159 17.5524C29.8777 17.7258 29.7529 17.756 29.4297 17.6943C29.0704 17.6255 29.0192 17.5728 29.0192 17.2709C29.0192 17.0081 28.938 16.8832 28.6781 16.7464C28.4905 16.6476 28.1367 16.5667 27.8919 16.5667C27.6471 16.5667 27.3973 16.522 27.337 16.4672C27.2758 16.4118 27.0991 16.4383 26.9381 16.5269ZM13.3583 18.6117C13.14 18.9593 12.8206 19.5361 12.6485 19.8933C12.4765 20.2506 12.368 20.6286 12.4074 20.7333C12.4468 20.8379 12.6017 20.9235 12.7516 20.9235C12.9015 20.9235 13.1355 20.8029 13.2716 20.6553C13.4077 20.5076 13.602 20.15 13.7034 19.8605C13.8048 19.5708 13.9316 19.0996 13.9852 18.8133C14.0387 18.5269 14.0559 18.2223 14.0235 18.1362C13.9911 18.0502 13.9175 17.9797 13.86 17.9797C13.8024 17.9797 13.5766 18.2641 13.3583 18.6117ZM27.0614 22.2229C27.1844 22.2901 27.285 22.4215 27.285 22.5151C27.285 22.6087 27.1418 22.7166 26.967 22.7546C26.7922 22.7927 26.5321 22.8721 26.389 22.931C26.2458 22.9899 26.1288 23.0905 26.1288 23.1546C26.1288 23.2188 26.2198 23.2357 26.3311 23.1924C26.5202 23.1188 26.5212 23.1325 26.3473 23.4C26.245 23.5575 26.0109 23.7179 25.8271 23.7564C25.6434 23.7949 25.3689 23.8943 25.2172 23.9773C24.9997 24.0963 24.9752 24.15 25.1016 24.2314C25.1897 24.2883 25.2241 24.3355 25.1781 24.3366C25.1321 24.3375 24.8589 24.2218 24.5712 24.0794C24.1355 23.8638 24.0478 23.7651 24.0478 23.4908C24.0478 23.2672 24.1923 23.0094 24.4967 22.6899C24.8479 22.3214 25.0316 22.2188 25.3407 22.2188C25.5579 22.2188 25.7938 22.2779 25.8648 22.3502C25.9597 22.4469 26.0642 22.4314 26.2604 22.2914C26.4071 22.1867 26.5969 22.1011 26.6824 22.1011C26.7678 22.1011 26.9384 22.1559 27.0614 22.2229ZM29.2213 27.8608C29.3391 28.0015 29.3179 28.0858 29.1057 28.3219L28.8458 28.6109L29.2927 28.5405L29.7397 28.47L29.6689 28.8306C29.6122 29.1196 29.6324 29.1776 29.7711 29.1234C29.8663 29.0862 29.9441 29.0788 29.9441 29.107C29.9441 29.135 29.7826 29.3453 29.5852 29.5742C29.282 29.926 29.2597 29.9902 29.4407 29.9893C29.5586 29.9887 29.9332 29.8562 30.2732 29.695C30.6133 29.5338 30.9385 29.4315 30.9958 29.4676C31.0533 29.5038 31.1002 29.657 31.1002 29.8082C31.1002 29.9594 31.0135 30.1169 30.9075 30.1584C30.7718 30.2114 30.751 30.2706 30.8372 30.3584C30.9236 30.4464 31.0296 30.4452 31.1959 30.3547C31.3257 30.2839 31.4613 30.226 31.4973 30.226C31.5332 30.226 31.5627 30.4127 31.5627 30.641C31.5627 30.9782 31.5071 31.0775 31.2661 31.1709C31.103 31.234 30.8207 31.2857 30.6386 31.2857C30.4233 31.2857 30.2283 31.3886 30.0804 31.5801C29.9293 31.7757 29.7381 31.8745 29.5108 31.8745C29.3142 31.8745 29.0468 31.7596 28.8824 31.6044C28.6836 31.4168 28.5515 31.1032 28.4501 30.5782C28.3517 30.0685 28.3307 29.4371 28.3856 28.6405C28.4306 27.9906 28.4926 27.4156 28.5234 27.3628C28.5544 27.3101 28.6915 27.3618 28.8283 27.4777C28.9651 27.5937 29.1418 27.7661 29.2213 27.8608ZM26.9173 28.077C26.9375 28.2228 26.9012 28.3419 26.8365 28.3419C26.7718 28.3419 26.573 28.4736 26.395 28.6344C26.2168 28.7954 26.006 28.983 25.9265 29.0513C25.8471 29.1196 25.782 29.2512 25.782 29.3438C25.782 29.4497 25.8505 29.4853 25.9671 29.4397C26.1368 29.3733 26.1368 29.3977 25.9671 29.732C25.8652 29.9324 25.782 30.3337 25.782 30.6236C25.782 31.0211 25.7348 31.1601 25.5899 31.1888C25.4843 31.2098 25.3369 31.4123 25.2624 31.639C25.1522 31.9742 25.0615 32.0578 24.7759 32.0869C24.4785 32.1172 24.387 32.0575 24.1784 31.6974C24.043 31.4637 23.9322 31.171 23.9322 31.0472C23.9322 30.8955 23.9887 30.8442 24.1056 30.8898C24.2399 30.9424 24.279 30.8621 24.279 30.5329C24.279 30.1628 24.3147 30.1082 24.5572 30.1082C24.7757 30.1082 24.8228 30.0591 24.7767 29.8797C24.7445 29.754 24.8343 29.2903 24.9764 28.8493C25.1185 28.4083 25.2881 27.979 25.3533 27.8952C25.4329 27.7929 25.7029 27.7542 26.1761 27.7774C26.8062 27.8084 26.8842 27.84 26.9173 28.077Z" fill="#18A865"/>
</svg>
