<svg width="93" height="81" viewBox="0 0 93 81" fill="none" xmlns="http://www.w3.org/2000/svg">
<path fill-rule="evenodd" clip-rule="evenodd" d="M0.979187 10.1845C0.979187 5.07129 5.04812 0.854164 10.1553 0.854164H74.928C80.0354 0.854164 84.1042 5.07129 84.1042 10.1845V30.5417C84.1042 31.6346 83.2179 32.5208 82.125 32.5208C81.0321 32.5208 80.1459 31.6346 80.1459 30.5417V10.1845C80.1459 7.17788 77.7705 4.8125 74.928 4.8125H10.1553C7.31296 4.8125 4.93752 7.17788 4.93752 10.1845V46.9406C4.93752 49.947 7.31296 52.3125 10.1553 52.3125H38.5834C39.6763 52.3125 40.5625 53.1988 40.5625 54.2917C40.5625 55.3846 39.6763 56.2708 38.5834 56.2708H10.1553C5.04812 56.2708 0.979187 52.0536 0.979187 46.9406V10.1845Z" fill="black" stroke="#F8F8F8"/>
<path fill-rule="evenodd" clip-rule="evenodd" d="M0.979187 14.7083C0.979187 13.6153 1.86529 12.7292 2.95835 12.7292H82.125C83.2179 12.7292 84.1042 13.6153 84.1042 14.7083C84.1042 15.8014 83.2179 16.6875 82.125 16.6875H2.95835C1.86529 16.6875 0.979187 15.8014 0.979187 14.7083Z" fill="black" stroke="#F8F8F8"/>
<path fill-rule="evenodd" clip-rule="evenodd" d="M8.89586 34.5C8.89586 33.4071 9.78197 32.5208 10.875 32.5208H18.7917C19.8847 32.5208 20.7709 33.4071 20.7709 34.5C20.7709 35.5929 19.8847 36.4792 18.7917 36.4792H10.875C9.78197 36.4792 8.89586 35.5929 8.89586 34.5Z" fill="#18A865" stroke="#F8F8F8"/>
<path fill-rule="evenodd" clip-rule="evenodd" d="M8.89586 44.3958C8.89586 43.3029 9.78197 42.4167 10.875 42.4167H26.7084C27.8014 42.4167 28.6875 43.3029 28.6875 44.3958C28.6875 45.4887 27.8014 46.375 26.7084 46.375H10.875C9.78197 46.375 8.89586 45.4887 8.89586 44.3958Z" fill="#18A865" stroke="#F8F8F8"/>
<path fill-rule="evenodd" clip-rule="evenodd" d="M70.25 40.4375C60.4124 40.4375 52.4375 48.4124 52.4375 58.25C52.4375 68.0876 60.4124 76.0625 70.25 76.0625C80.0877 76.0625 88.0625 68.0876 88.0625 58.25C88.0625 48.4124 80.0877 40.4375 70.25 40.4375ZM48.4792 58.25C48.4792 46.2262 58.2262 36.4792 70.25 36.4792C82.2738 36.4792 92.0209 46.2262 92.0209 58.25C92.0209 70.2738 82.2738 80.0208 70.25 80.0208C58.2262 80.0208 48.4792 70.2738 48.4792 58.25Z" fill="black" stroke="#F8F8F8"/>
<path fill-rule="evenodd" clip-rule="evenodd" d="M76.767 54.8712C77.5401 54.0985 78.7933 54.0985 79.5664 54.8712C80.339 55.6442 80.339 56.8974 79.5664 57.6705L71.6497 65.5872C70.8766 66.3598 69.6234 66.3598 68.8504 65.5872L62.9129 59.6497C62.1402 58.8766 62.1402 57.6234 62.9129 56.8503C63.6859 56.0777 64.9391 56.0777 65.7122 56.8503L70.25 61.3886L76.767 54.8712Z" fill="#18A865" stroke="#F8F8F8"/>
</svg>
