<svg width="40" height="40" viewBox="0 0 40 40" fill="none" xmlns="http://www.w3.org/2000/svg">
<path fill-rule="evenodd" clip-rule="evenodd" d="M12.74 26.1013L16.8575 28.5713C17.2425 28.8038 17.7238 28.81 18.1163 28.5875C18.5075 28.3663 18.75 27.95 18.75 27.5V18.75C18.75 14.6112 15.3888 11.25 11.25 11.25C7.11125 11.25 3.75 14.6112 3.75 18.75C3.75 22.8888 7.11125 26.25 11.25 26.25C11.76 26.25 12.2588 26.1988 12.74 26.1013ZM30.24 26.1013L34.3575 28.5713C34.7425 28.8038 35.2237 28.81 35.6162 28.5875C36.0075 28.3663 36.25 27.95 36.25 27.5V18.75C36.25 14.6112 32.8888 11.25 28.75 11.25C24.6112 11.25 21.25 14.6112 21.25 18.75C21.25 22.8888 24.6112 26.25 28.75 26.25C29.26 26.25 29.7587 26.1988 30.24 26.1013ZM31.0875 23.695C30.7925 23.5175 30.4375 23.47 30.1062 23.5637C29.675 23.685 29.22 23.75 28.75 23.75C25.99 23.75 23.75 21.51 23.75 18.75C23.75 15.99 25.99 13.75 28.75 13.75C31.51 13.75 33.75 15.99 33.75 18.75V25.2925L31.0875 23.695ZM13.5875 23.695C13.2925 23.5175 12.9375 23.47 12.6062 23.5637C12.175 23.685 11.72 23.75 11.25 23.75C8.49 23.75 6.25 21.51 6.25 18.75C6.25 15.99 8.49 13.75 11.25 13.75C14.01 13.75 16.25 15.99 16.25 18.75V25.2925L13.5875 23.695Z" fill="#18A865"/>
</svg>
