<svg width="15" height="15" viewBox="0 0 15 15" fill="none" xmlns="http://www.w3.org/2000/svg">
<g clip-path="url(#clip0_3_1278)">
<path d="M13.4058 3.36778C13.4058 3.11659 13.3079 2.88051 13.1302 2.70297C13.1302 2.70294 13.1302 2.70294 13.1302 2.70294L10.6982 0.274439C10.3317 -0.0915088 9.7355 -0.0914502 9.36908 0.274439L0.275713 9.35503C0.0979102 9.53257 0 9.76871 0 10.0199C0 10.2711 0.0979102 10.5072 0.275713 10.6848L2.70762 13.1132C2.89087 13.2963 3.13151 13.3877 3.37222 13.3877C3.61289 13.3877 3.85359 13.2962 4.03679 13.1133L13.1302 4.03264C13.3079 3.85507 13.4058 3.61897 13.4058 3.36778ZM12.5092 3.4107L11.9539 3.96517L11.2426 3.25484C11.0708 3.08331 10.7926 3.08354 10.6211 3.25531C10.4496 3.42708 10.4498 3.70531 10.6216 3.87681L11.332 4.58624L10.7338 5.18363L10.0225 4.4733C9.85075 4.30179 9.57255 4.30197 9.40099 4.47376C9.22948 4.64553 9.22969 4.92376 9.40146 5.09527L10.1119 5.80469L9.51366 6.40209L8.80233 5.69178C8.6306 5.52025 8.35239 5.52048 8.18086 5.69225C8.00936 5.86402 8.00956 6.14225 8.18133 6.31376L8.89175 7.02318L8.29354 7.62054L7.58221 6.91021C7.4105 6.73871 7.1323 6.73888 6.96073 6.91068C6.78923 7.08245 6.78943 7.36068 6.9612 7.53218L7.67162 8.24161L7.07329 8.83888L6.36196 8.12858C6.19022 7.95705 5.91202 7.95728 5.74049 8.12905C5.56898 8.30082 5.56919 8.57905 5.74096 8.75055L6.45138 9.45998L5.85316 10.0574L5.14184 9.34706C4.9701 9.17556 4.69189 9.17574 4.52036 9.34753C4.34886 9.5193 4.34906 9.79753 4.52083 9.96904L5.23125 10.6784L4.63304 11.2758L3.92171 10.5655C3.75 10.3939 3.4718 10.3942 3.30023 10.5659C3.12873 10.7377 3.12894 11.0159 3.3007 11.1874L4.01112 11.8969L3.41572 12.4913C3.39176 12.5152 3.35271 12.5153 3.32865 12.4913L0.896719 10.0628C0.881982 10.0481 0.878906 10.0314 0.878906 10.0199C0.878906 10.0084 0.881982 9.99168 0.896719 9.97698L9.99009 0.896411C10.0021 0.884429 10.0179 0.878423 10.0336 0.878423C10.0494 0.878423 10.0652 0.884429 10.0772 0.896411L12.5091 3.32492C12.5238 3.33962 12.5269 3.35635 12.5269 3.36781C12.5269 3.37926 12.5238 3.39599 12.5092 3.4107Z" fill="black"/>
<path d="M14.5605 5.99829H12.9419C12.6992 5.99829 12.5024 6.19505 12.5024 6.43777C12.5024 6.6805 12.6992 6.87726 12.9419 6.87726H13.4985L6.86572 13.5008V12.9443C6.86572 12.7016 6.66896 12.5048 6.42627 12.5048C6.18357 12.5048 5.98682 12.7015 5.98682 12.9443V14.5607C5.98682 14.8034 6.18357 15.0002 6.42627 15.0002H8.04492C8.28762 15.0002 8.48438 14.8034 8.48438 14.5607C8.48438 14.318 8.28762 14.1212 8.04492 14.1212H7.48828L14.1211 7.49765V8.05414C14.1211 8.29684 14.3179 8.49362 14.5605 8.49362C14.8032 8.49362 15 8.29687 15 8.05414V6.43774C15 6.19505 14.8032 5.99829 14.5605 5.99829Z" fill="black"/>
</g>
<defs>
<clipPath id="clip0_3_1278">
<rect width="15" height="15" fill="white"/>
</clipPath>
</defs>
</svg>
