<svg width="15" height="13" viewBox="0 0 15 13" fill="none" xmlns="http://www.w3.org/2000/svg">
<g clip-path="url(#clip0_5_2477)">
<path d="M6.63061 1.00037H1.94334C1.68445 1.00037 1.47461 1.21021 1.47461 1.46909V15.5309C1.47461 15.7898 1.68445 15.9996 1.94334 15.9996H6.63061C6.88949 15.9996 7.09933 15.7898 7.09933 15.5309V1.46909C7.09933 1.21021 6.88946 1.00037 6.63061 1.00037ZM6.16188 15.0622H2.41206V13.656H4.7557V12.7185H2.41206V11.3124H3.81824V10.3749H2.41206V8.96873H4.7557V8.03127H2.41206V6.62509H3.81824V5.68764H2.41206V4.28146H4.7557V3.344H2.41206V1.93782H6.16188V15.0622Z" fill="black"/>
<path d="M13.9361 12.8592L12.3893 14.4013V2.59874L13.9314 4.14085L14.5923 3.47995L12.2487 1.13631C12.0658 0.954563 11.7706 0.954563 11.5878 1.13631L9.24414 3.47995L9.90505 4.14085L11.4518 2.59874V14.4013L9.90973 12.8592L9.24883 13.5201L11.5925 15.8637C11.7753 16.0455 12.0705 16.0455 12.2534 15.8637L14.597 13.5201L13.9361 12.8592Z" fill="#18A865"/>
</g>
<defs>
<clipPath id="clip0_5_2477">
<rect width="15" height="12" fill="white" transform="translate(0 0.400024)"/>
</clipPath>
</defs>
</svg>
