<svg width="17" height="17" viewBox="0 0 17 17" fill="none" xmlns="http://www.w3.org/2000/svg">
<path d="M15.7391 14.4865L13.6224 12.3787C14.59 11.146 15.115 9.62368 15.1131 8.05655C15.1131 6.6609 14.6992 5.29659 13.9239 4.13614C13.1485 2.9757 12.0464 2.07124 10.757 1.53715C9.46756 1.00306 8.04872 0.863314 6.67989 1.13559C5.31105 1.40787 4.05369 2.07994 3.06682 3.06682C2.07994 4.05369 1.40787 5.31105 1.13559 6.67989C0.863314 8.04872 1.00306 9.46756 1.53715 10.757C2.07124 12.0464 2.9757 13.1485 4.13614 13.9239C5.29659 14.6992 6.6609 15.1131 8.05655 15.1131C9.62368 15.115 11.146 14.59 12.3787 13.6224L14.4865 15.7391C14.5685 15.8218 14.6661 15.8874 14.7736 15.9322C14.8811 15.9769 14.9964 16 15.1128 16C15.2293 16 15.3446 15.9769 15.452 15.9322C15.5595 15.8874 15.6571 15.8218 15.7391 15.7391C15.8218 15.6571 15.8874 15.5595 15.9322 15.452C15.9769 15.3446 16 15.2293 16 15.1128C16 14.9964 15.9769 14.8811 15.9322 14.7736C15.8874 14.6661 15.8218 14.5685 15.7391 14.4865ZM2.76414 8.05655C2.76414 7.00981 3.07453 5.98658 3.65607 5.11625C4.23761 4.24591 5.06417 3.56757 6.03123 3.167C6.9983 2.76643 8.06242 2.66162 9.08905 2.86583C10.1157 3.07004 11.0587 3.57409 11.7989 4.31425C12.539 5.05441 13.0431 5.99743 13.2473 7.02405C13.4515 8.05068 13.3467 9.11481 12.9461 10.0819C12.5455 11.0489 11.8672 11.8755 10.9969 12.457C10.1265 13.0386 9.10329 13.349 8.05655 13.349C6.65292 13.349 5.30677 12.7914 4.31425 11.7989C3.32173 10.8063 2.76414 9.46019 2.76414 8.05655Z" fill="black" stroke="white" stroke-width="0.5"/>
</svg>
