<svg width="54" height="43" viewBox="0 0 54 43" fill="none" xmlns="http://www.w3.org/2000/svg">
<path d="M51.489 20.9887L44.2233 12.8943C43.0993 11.6425 41.489 10.9241 39.8034 10.9241H33.2993L33.9149 5.40289C34.0264 4.40128 33.7032 3.39554 33.0288 2.64522C32.3545 1.8949 31.3883 1.46387 30.3776 1.46387H5.74492C5.09012 1.46387 4.55869 1.99364 4.55869 2.6464C4.55869 3.29916 5.09012 3.82894 5.74492 3.82894H30.3776C30.7192 3.82894 31.033 3.96848 31.2613 4.22272C31.4891 4.47697 31.5947 4.80275 31.5567 5.14214L28.4079 33.3923H21.8492C21.8207 31.9709 21.3456 30.6577 20.4572 29.6017C19.3047 28.2329 17.6114 27.4796 15.6879 27.4796C12.2028 27.4796 8.86293 30.0558 7.79295 33.3923H2.18623C1.53143 33.3923 1 33.9221 1 34.5748C1 35.2276 1.53143 35.7574 2.18623 35.7574H7.43412C7.46259 37.1788 7.93767 38.492 8.82616 39.548C9.97858 40.9168 11.6719 41.6701 13.5954 41.6701C17.0805 41.6701 20.4204 39.0939 21.4904 35.7574H32.9381C32.9665 37.1788 33.4416 38.492 34.3301 39.548C35.4825 40.9168 37.1759 41.6701 39.0994 41.6701C42.5845 41.6701 45.9243 39.0939 46.9943 35.7574H48.6859C50.5127 35.7574 52.034 34.3916 52.225 32.5811L52.9676 25.5503C53.1426 23.8942 52.6034 22.2315 51.489 20.9887ZM19.4044 34.3691C18.9234 37.0913 16.3172 39.305 13.5954 39.305C12.3854 39.305 11.3368 38.8509 10.6435 38.0278C9.92935 37.1794 9.65771 36.0264 9.87835 34.7806C10.36 32.0584 12.9661 29.8447 15.6879 29.8447C16.8979 29.8447 17.9465 30.2988 18.6398 31.1218C19.3534 31.9703 19.625 33.1233 19.4044 34.3691ZM44.9083 34.3691C44.4273 37.0913 41.8212 39.305 39.0994 39.305C37.8894 39.305 36.8408 38.8509 36.1474 38.0278C35.4333 37.1794 35.1617 36.0264 35.3823 34.7806C35.8639 32.0584 38.4701 29.8447 41.1919 29.8447C42.4018 29.8447 43.4505 30.2988 44.1438 31.1218C44.8573 31.9703 45.129 33.1233 44.9083 34.3691ZM50.6082 25.3032L49.8656 32.3339C49.8015 32.937 49.295 33.3923 48.6859 33.3923H47.3532C47.3247 31.9709 46.8496 30.6577 45.9611 29.6017C44.8087 28.2329 43.1153 27.4796 41.1919 27.4796C37.7067 27.4796 34.3669 30.0558 33.2969 33.3923H30.7946L33.0359 13.2892H39.8034C40.8147 13.2892 41.7814 13.7203 42.4558 14.4718L49.7215 22.5656C50.3893 23.3112 50.7126 24.3093 50.6082 25.3032ZM40.4273 16.0374C40.2026 15.7932 39.8852 15.6543 39.5525 15.6543H36.5869C35.9701 15.6543 35.4564 16.1255 35.4048 16.7387L34.8117 23.8339C34.7844 24.1638 34.8965 24.489 35.1207 24.7332C35.3455 24.9762 35.6617 25.1146 35.9938 25.1146H46.0768C46.5471 25.1146 46.9736 24.8373 47.1628 24.4086C47.352 23.9787 47.2689 23.4791 46.9516 23.1332L40.4273 16.0374ZM37.2832 22.7495L37.6783 18.0194H39.0306L43.3799 22.7495H37.2832ZM32.4351 40.4875C32.4351 41.1403 31.9037 41.6701 31.2489 41.6701H25.9108C25.256 41.6701 24.7246 41.1403 24.7246 40.4875C24.7246 39.8348 25.256 39.305 25.9108 39.305H31.2489C31.9037 39.305 32.4351 39.8348 32.4351 40.4875ZM6.93115 40.4875C6.93115 41.1403 6.39972 41.6701 5.74492 41.6701H2.77935C2.12455 41.6701 1.59312 41.1403 1.59312 40.4875C1.59312 39.8348 2.12455 39.305 2.77935 39.305H5.74492C6.39972 39.305 6.93115 39.8348 6.93115 40.4875Z" fill="black" stroke="#F8F8F8"/>
<path d="M15.2353 10.9242H23.5389C24.1937 10.9242 24.7252 10.3944 24.7252 9.74162C24.7252 9.08886 24.1937 8.55908 23.5389 8.55908H15.2353C14.5805 8.55908 14.0491 9.08886 14.0491 9.74162C14.0491 10.3944 14.5805 10.9242 15.2353 10.9242Z" fill="#18A865"/>
<path d="M6.93169 9.74162C6.93169 10.3944 7.46312 10.9242 8.11792 10.9242H10.4904C11.1452 10.9242 11.6766 10.3944 11.6766 9.74162C11.6766 9.08886 11.1452 8.55908 10.4904 8.55908H8.11792C7.46312 8.55908 6.93169 9.08886 6.93169 9.74162Z" fill="#18A865"/>
<path d="M22.3527 16.8368C22.3527 16.1841 21.8213 15.6543 21.1665 15.6543H18.794C18.1392 15.6543 17.6078 16.1841 17.6078 16.8368C17.6078 17.4896 18.1392 18.0194 18.794 18.0194H21.1665C21.8213 18.0194 22.3527 17.4896 22.3527 16.8368Z" fill="#18A865"/>
<path d="M14.0491 15.6543H5.74546C5.09066 15.6543 4.55923 16.1841 4.55923 16.8368C4.55923 17.4896 5.09066 18.0194 5.74546 18.0194H14.0491C14.7039 18.0194 15.2353 17.4896 15.2353 16.8368C15.2353 16.1841 14.7039 15.6543 14.0491 15.6543Z" fill="#18A865"/>
<path d="M3.373 22.7495C2.7182 22.7495 2.18677 23.2793 2.18677 23.932C2.18677 24.5848 2.7182 25.1146 3.373 25.1146H18.794C19.4488 25.1146 19.9802 24.5848 19.9802 23.932C19.9802 23.2793 19.4488 22.7495 18.794 22.7495H3.373Z" fill="#18A865"/>
<path d="M15.2353 10.9242H23.5389C24.1937 10.9242 24.7252 10.3944 24.7252 9.74162C24.7252 9.08886 24.1937 8.55908 23.5389 8.55908H15.2353C14.5805 8.55908 14.0491 9.08886 14.0491 9.74162C14.0491 10.3944 14.5805 10.9242 15.2353 10.9242Z" stroke="#F8F8F8"/>
<path d="M6.93169 9.74162C6.93169 10.3944 7.46312 10.9242 8.11792 10.9242H10.4904C11.1452 10.9242 11.6766 10.3944 11.6766 9.74162C11.6766 9.08886 11.1452 8.55908 10.4904 8.55908H8.11792C7.46312 8.55908 6.93169 9.08886 6.93169 9.74162Z" stroke="#F8F8F8"/>
<path d="M22.3527 16.8368C22.3527 16.1841 21.8213 15.6543 21.1665 15.6543H18.794C18.1392 15.6543 17.6078 16.1841 17.6078 16.8368C17.6078 17.4896 18.1392 18.0194 18.794 18.0194H21.1665C21.8213 18.0194 22.3527 17.4896 22.3527 16.8368Z" stroke="#F8F8F8"/>
<path d="M14.0491 15.6543H5.74546C5.09066 15.6543 4.55923 16.1841 4.55923 16.8368C4.55923 17.4896 5.09066 18.0194 5.74546 18.0194H14.0491C14.7039 18.0194 15.2353 17.4896 15.2353 16.8368C15.2353 16.1841 14.7039 15.6543 14.0491 15.6543Z" stroke="#F8F8F8"/>
<path d="M3.373 22.7495C2.7182 22.7495 2.18677 23.2793 2.18677 23.932C2.18677 24.5848 2.7182 25.1146 3.373 25.1146H18.794C19.4488 25.1146 19.9802 24.5848 19.9802 23.932C19.9802 23.2793 19.4488 22.7495 18.794 22.7495H3.373Z" stroke="#F8F8F8"/>
</svg>
