<svg width="19" height="14" viewBox="0 0 19 14" fill="none" xmlns="http://www.w3.org/2000/svg">
<path d="M7.92502 13.175L1.67502 6.92496C1.47024 6.68583 1.36323 6.37824 1.37538 6.06364C1.38753 5.74905 1.51795 5.45062 1.74057 5.22801C1.96319 5.00539 2.26161 4.87497 2.57621 4.86282C2.8908 4.85067 3.1984 4.95768 3.43752 5.16246L7.92502 9.64996L16.4 1.17496C16.6391 0.970179 16.9467 0.86317 17.2613 0.875322C17.5759 0.887473 17.8744 1.01789 18.097 1.24051C18.3196 1.46313 18.45 1.76155 18.4622 2.07614C18.4743 2.39074 18.3673 2.69833 18.1625 2.93746L7.92502 13.175Z" fill="#18A865" stroke="white"/>
</svg>
