<svg width="18" height="18" viewBox="0 0 18 18" fill="none" xmlns="http://www.w3.org/2000/svg">
<path d="M8.92592 0.554688C4.25941 0.554688 0.476562 4.33754 0.476562 9.00404C0.476562 13.6706 4.25941 17.4534 8.92592 17.4534C13.5924 17.4534 17.3753 13.6706 17.3753 9.00404C17.3753 4.33754 13.5924 0.554688 8.92592 0.554688ZM12.1754 10.0875C12.1754 10.0875 12.9226 10.8251 13.1066 11.1674C13.1119 11.1745 13.1145 11.1815 13.1163 11.185C13.1911 11.3109 13.2087 11.4086 13.1717 11.4816C13.1101 11.6031 12.8989 11.663 12.8267 11.6682H11.5065C11.415 11.6682 11.2231 11.6445 10.9907 11.4843C10.8121 11.3593 10.636 11.1542 10.4644 10.9544C10.2083 10.6569 9.98649 10.3999 9.76293 10.3999C9.73454 10.3999 9.70632 10.4044 9.67932 10.4132C9.51033 10.4677 9.29382 10.7089 9.29382 11.3514C9.29382 11.5521 9.13539 11.6674 9.02361 11.6674H8.41896C8.21301 11.6674 7.14011 11.5952 6.18956 10.5927C5.02601 9.3649 3.97864 6.90227 3.96984 6.87938C3.90383 6.72008 4.04025 6.6347 4.189 6.6347H5.52241C5.7002 6.6347 5.75829 6.74296 5.79878 6.8389C5.8463 6.95067 6.02057 7.39515 6.30662 7.89507C6.77045 8.71008 7.05474 9.04101 7.2827 9.04101C7.32544 9.04051 7.36742 9.02963 7.40504 9.00933C7.70252 8.84386 7.64707 7.78329 7.63387 7.56325C7.63387 7.52189 7.63299 7.08886 7.48073 6.88114C7.37159 6.73064 7.18588 6.67343 7.07322 6.65231C7.11882 6.58939 7.17889 6.53837 7.24837 6.50356C7.45256 6.40147 7.82046 6.3865 8.18572 6.3865H8.38903C8.7851 6.39178 8.88719 6.41731 9.03066 6.45339C9.3211 6.52293 9.32726 6.7104 9.30174 7.35202C9.29382 7.53421 9.2859 7.74016 9.2859 7.98308C9.2859 8.03589 9.28326 8.09222 9.28326 8.15207C9.27446 8.4786 9.26389 8.84914 9.49449 9.0014C9.52457 9.02026 9.55933 9.03032 9.59483 9.03045C9.67492 9.03045 9.91608 9.03045 10.5691 7.91003C10.7706 7.5494 10.9456 7.17465 11.0928 6.78873C11.106 6.76584 11.1448 6.69543 11.1905 6.66815C11.2243 6.65093 11.2618 6.64217 11.2997 6.64262H12.8672C13.0379 6.64262 13.155 6.66815 13.177 6.73416C13.2157 6.8389 13.17 7.15839 12.4544 8.12742L12.1349 8.54901C11.4863 9.39923 11.4863 9.44236 12.1754 10.0875Z" fill="#7E7F81"/>
</svg>
