<svg width="48" height="48" viewBox="0 0 48 48" fill="none" xmlns="http://www.w3.org/2000/svg">
<path d="M23.7485 9.09003C15.6652 9.09003 9.08887 15.6663 9.08887 23.7497C9.08887 31.833 15.6652 38.4093 23.7485 38.4093C31.8318 38.4093 38.4081 31.833 38.4081 23.7497C38.4081 15.6663 31.8319 9.09003 23.7485 9.09003ZM23.7485 35.7439C17.1349 35.7439 11.7543 30.3633 11.7543 23.7497C11.7543 17.136 17.1349 11.7554 23.7485 11.7554C30.3621 11.7554 35.7427 17.136 35.7427 23.7497C35.7427 30.3633 30.3622 35.7439 23.7485 35.7439Z" fill="black" stroke="#F8F8F8" stroke-width="1.5"/>
<path d="M29.4693 18.8092L22.4155 25.863L18.027 21.4746C17.5066 20.9542 16.6628 20.9542 16.1423 21.4746C15.6218 21.9951 15.6218 22.8389 16.1423 23.3593L21.4731 28.6901C21.7333 28.9503 22.0744 29.0805 22.4154 29.0805C22.7564 29.0805 23.0975 28.9504 23.3577 28.6901L31.3538 20.6939C31.8743 20.1735 31.8743 19.3297 31.3538 18.8092C30.8336 18.2888 29.9897 18.2888 29.4693 18.8092Z" fill="#18A865" stroke="#F8F8F8" stroke-width="1.5"/>
<path d="M44.5916 14.4058C44.5872 14.403 39.9369 11.6195 39.9369 11.6195L38.8931 7.2964C38.4299 5.37812 36.6661 4.09598 34.6982 4.24862L29.3991 4.65873C29.3991 4.65873 26.3466 1.96474 26.3405 1.95967C24.8383 0.680109 22.6576 0.680109 21.1554 1.95967C21.1494 1.96474 18.0968 4.65873 18.0968 4.65873L12.7977 4.24862C10.8457 4.09705 9.0953 5.3568 8.61464 7.2486L7.16147 11.8789C7.16147 11.8789 2.914 14.4023 2.9084 14.4058C1.22717 15.4391 0.553267 17.513 1.30615 19.3372L3.11932 23.7311L1.30615 28.1249C0.553267 29.9491 1.22717 32.023 2.90849 33.0563C2.91365 33.0595 7.5548 35.8249 7.5548 35.8249L8.603 40.1657C9.04119 41.9807 10.6438 43.2259 12.4817 43.2257C12.7628 43.2257 12.447 43.2364 18.0418 42.8076C18.0418 42.8076 21.1505 45.5356 21.1555 45.5397C21.9066 46.1795 22.8273 46.4995 23.7481 46.4995C24.6688 46.4995 25.5896 46.1795 26.3407 45.5397C26.3457 45.5355 29.4543 42.8076 29.4543 42.8076L34.6983 43.2135C36.6655 43.3655 38.4301 42.084 38.8932 40.1657L39.937 35.8425C45.6274 32.4363 44.4208 33.1617 44.5917 33.0562C46.2728 32.0229 46.9467 29.949 46.1938 28.1248L44.3807 23.7309L46.1938 19.337C46.9466 17.513 46.2728 15.4392 44.5916 14.4058ZM41.7069 24.2395L43.73 29.1417C43.9802 29.7478 43.7578 30.4368 43.2013 30.7823L38.0883 33.8429C37.7814 34.0266 37.5613 34.3259 37.4773 34.6736L36.3022 39.5403C36.1478 40.1796 35.5607 40.6067 34.9039 40.5562L29.1001 40.107C28.7427 40.0793 28.3881 40.1971 28.1183 40.434L24.606 43.5162C24.1075 43.9357 23.3885 43.9357 22.89 43.516L19.3779 40.434C19.108 40.1971 18.7533 40.0791 18.3961 40.107L12.5923 40.5562C11.936 40.6068 11.3484 40.1796 11.194 39.5402L10.0142 34.6543C9.9301 34.3057 9.70896 34.0058 9.40093 33.8222L4.29769 30.7815C3.74205 30.4357 3.52011 29.7474 3.77012 29.1416L5.79315 24.2394C5.92758 23.9138 5.92758 23.5482 5.79315 23.2226L3.76986 18.3204C3.52002 17.715 3.74169 17.027 4.29671 16.6811L8.96114 13.91C9.24332 13.7424 9.45371 13.4765 9.55197 13.1634C11.271 7.6827 11.1739 8.00442 11.1938 7.92188C11.3482 7.28254 11.9342 6.85483 12.5921 6.90601L18.4533 7.35966C18.8129 7.38738 19.1678 7.2685 19.438 7.03013L22.8913 3.98235C23.3891 3.56424 24.1066 3.56424 24.6045 3.98217L28.0579 7.03013C28.3281 7.26868 28.6839 7.38738 29.0426 7.35966L34.9038 6.90601C35.5594 6.85537 36.1477 7.28245 36.3021 7.92197L37.4772 12.7886C37.5612 13.1363 37.7813 13.4356 38.0882 13.6193L43.2012 16.6799C43.7577 17.0254 43.9802 17.7142 43.7299 18.3204L41.7068 23.2226C41.5725 23.5483 41.5725 23.9138 41.7069 24.2395Z" fill="black" stroke="#F8F8F8" stroke-width="1.5"/>
</svg>
