<svg width="18" height="18" viewBox="0 0 18 18" fill="none" xmlns="http://www.w3.org/2000/svg">
<path d="M10.3016 9.28089L8.32483 8.3585C8.15233 8.27841 8.01062 8.36818 8.01062 8.55917V10.2966C8.01062 10.4876 8.15233 10.5773 8.32483 10.4972L10.3007 9.57486C10.4741 9.49388 10.4741 9.36186 10.3016 9.28089ZM8.89076 0.978516C4.22425 0.978516 0.441406 4.76136 0.441406 9.42787C0.441406 14.0944 4.22425 17.8772 8.89076 17.8772C13.5573 17.8772 17.3401 14.0944 17.3401 9.42787C17.3401 4.76136 13.5573 0.978516 8.89076 0.978516ZM8.89076 12.8604C4.56575 12.8604 4.49006 12.4705 4.49006 9.42787C4.49006 6.38522 4.56575 5.99532 8.89076 5.99532C13.2158 5.99532 13.2915 6.38522 13.2915 9.42787C13.2915 12.4705 13.2158 12.8604 8.89076 12.8604Z" fill="#7E7F81"/>
</svg>
