<svg xmlns="http://www.w3.org/2000/svg" xmlns:xlink="http://www.w3.org/1999/xlink"><symbol fill="none" viewBox="0 0 10 8" id="a" xmlns="http://www.w3.org/2000/svg"><path d="M7.809.964a.75.75 0 011.07 1.05l-3.99 4.99a.75.75 0 01-1.08.02L1.163 4.378a.75.75 0 111.06-1.06L4.317 5.41 7.79.986a.266.266 0 01.02-.022h-.001z" fill="#18A865"/></symbol><symbol fill="none" viewBox="0 0 16 30" id="ar" xmlns="http://www.w3.org/2000/svg"><path d="M15.273 30l.727-.714L1.454 15 16 .714 15.273 0 0 15l15.273 15z" fill="#000"/></symbol><symbol fill="none" viewBox="0 0 20 8" id="arrow" xmlns="http://www.w3.org/2000/svg"><path d="M.646 3.646a.5.5 0 000 .708l3.182 3.182a.5.5 0 00.708-.708L1.707 4l2.829-2.828a.5.5 0 10-.708-.708L.646 3.646zM20 3.5H1v1h19v-1z" fill="#B5B5B5"/></symbol><symbol viewBox="0 0 32 32" id="arrow-up" xmlns="http://www.w3.org/2000/svg"><path d="M.256 23.481a1.063 1.063 0 001.813.75l14.119-14.119 13.913 13.912c.413.413 1.087.413 1.5 0s.413-1.087 0-1.5L16.938 7.855a1.065 1.065 0 00-1.5 0L.569 22.724a1.051 1.051 0 00-.313.756z"/></symbol><symbol fill="none" viewBox="0 0 7 4" id="bottom-arrow" xmlns="http://www.w3.org/2000/svg"><path d="M1 0l2.5 2.5L6 0l1 .5L3.5 4 0 .5 1 0z" fill="#fff"/></symbol><symbol fill="none" viewBox="0 0 18 14" id="car" xmlns="http://www.w3.org/2000/svg"><path d="M5.21 12.79a1.684 1.684 0 100-3.369 1.684 1.684 0 000 3.368z" stroke="#000" stroke-linecap="round" stroke-linejoin="round"/><path d="M13.632 12.79a1.684 1.684 0 100-3.369 1.684 1.684 0 000 3.368z" stroke="#18A865" stroke-linecap="round" stroke-linejoin="round"/><path d="M3.526 11.105H1.842V7.737M1 1h9.263v10.105m-3.368 0h5.052m3.369 0H17V6.053h-6.737m0-4.21h4.21L17 6.052M1.842 4.368h3.369" stroke="#000" stroke-linecap="round" stroke-linejoin="round"/></symbol><symbol fill="none" viewBox="0 0 50 44" id="card" xmlns="http://www.w3.org/2000/svg"><path fill-rule="evenodd" clip-rule="evenodd" d="M.767 5.821C.767 3.1 2.933.854 5.652.854h34.483c2.719 0 4.885 2.245 4.885 4.967V16.66a1.054 1.054 0 01-2.108 0V5.82c0-1.6-1.264-2.86-2.777-2.86H5.652c-1.514 0-2.778 1.26-2.778 2.86V25.39c0 1.6 1.264 2.86 2.778 2.86h15.134a1.054 1.054 0 010 2.107H5.652c-2.72 0-4.885-2.245-4.885-4.967V5.821z" fill="#000" stroke="#F8F8F8" stroke-width=".8"/><path fill-rule="evenodd" clip-rule="evenodd" d="M.767 8.23c0-.582.471-1.054 1.053-1.054h42.146a1.054 1.054 0 010 2.107H1.82A1.054 1.054 0 01.767 8.23z" fill="#000" stroke="#F8F8F8" stroke-width=".8"/><path fill-rule="evenodd" clip-rule="evenodd" d="M4.981 18.766c0-.582.472-1.053 1.054-1.053h4.215a1.054 1.054 0 010 2.107H6.035a1.054 1.054 0 01-1.054-1.054zM4.981 24.034c0-.581.472-1.053 1.054-1.053h8.43a1.054 1.054 0 010 2.107h-8.43a1.054 1.054 0 01-1.054-1.054z" fill="#18A865" stroke="#F8F8F8" stroke-width=".8"/><path fill-rule="evenodd" clip-rule="evenodd" d="M37.644 21.927a9.483 9.483 0 100 18.966 9.483 9.483 0 000-18.966zm-11.59 9.483c0-6.401 5.189-11.59 11.59-11.59 6.4 0 11.59 5.189 11.59 11.59S44.044 43 37.644 43c-6.401 0-11.59-5.189-11.59-11.59z" fill="#000" stroke="#F8F8F8" stroke-width=".8"/><path fill-rule="evenodd" clip-rule="evenodd" d="M41.114 29.611a1.054 1.054 0 011.49 1.49l-4.215 4.215a1.054 1.054 0 01-1.49 0l-3.16-3.161a1.054 1.054 0 011.49-1.49l2.415 2.416 3.47-3.47z" fill="#18A865" stroke="#F8F8F8" stroke-width=".8"/></symbol><symbol fill="none" viewBox="0 0 9 9" id="close" xmlns="http://www.w3.org/2000/svg"><path d="M5.62 4.006L8.86.766a.444.444 0 00-.626-.627l-3.24 3.24L1.754.134a.444.444 0 00-.627.627l3.24 3.245-3.245 3.24a.445.445 0 10.627.626l3.245-3.24 3.24 3.24a.444.444 0 00.626-.626l-3.24-3.24z" fill="#7E7F81"/></symbol><symbol fill="none" viewBox="0 0 18 17" id="consultation" xmlns="http://www.w3.org/2000/svg"><path d="M10.6 13.8c3.017 0 4.526 0 5.462-.938C17 11.926 17 10.417 17 7.4s0-4.526-.938-5.462C15.126 1 13.617 1 10.6 1H7.4c-3.017 0-4.526 0-5.462.938C1 2.874 1 4.383 1 7.4s0 4.526.938 5.462c.522.524 1.222.755 2.262.856" stroke="#18A865" stroke-width="1.5" stroke-linecap="round" stroke-linejoin="round"/><path d="M6.6 7.4L8.4 9l3-3.2" stroke="#18A865" stroke-width="1.5" stroke-linecap="round" stroke-linejoin="round"/><path d="M10.6 13.8c-.988 0-2.078.4-3.072.916-1.599.83-2.398 1.245-2.792.98-.393-.264-.319-1.084-.17-2.723L4.6 12.6" stroke="#18A865" stroke-width="1.5" stroke-linecap="round"/></symbol><symbol fill="none" viewBox="0 0 99 77" id="delivery" xmlns="http://www.w3.org/2000/svg"><path d="M95.181 37.421L81.628 22.322a11.093 11.093 0 00-8.245-3.675H61.251l1.148-10.3a6.612 6.612 0 00-1.653-5.143A6.659 6.659 0 0055.8 1H9.852a2.21 2.21 0 00-2.213 2.206 2.21 2.21 0 002.213 2.206h45.95c.637 0 1.222.26 1.648.734.425.475.622 1.082.551 1.715L52.126 60.56H39.892c-.053-2.652-.94-5.101-2.597-7.071-2.15-2.553-5.308-3.959-8.896-3.959-6.502 0-12.732 4.806-14.728 11.03H3.213A2.21 2.21 0 001 62.765a2.21 2.21 0 002.213 2.206h9.79c.052 2.651.938 5.1 2.596 7.07C17.749 74.596 20.907 76 24.495 76c6.501 0 12.732-4.805 14.727-11.03h21.355c.053 2.652.94 5.102 2.596 7.072C65.323 74.594 68.483 76 72.07 76c6.501 0 12.731-4.805 14.727-11.03h3.156a6.616 6.616 0 006.601-5.924L97.94 45.93c.327-3.09-.679-6.191-2.758-8.51zm-59.85 24.96c-.897 5.078-5.759 9.207-10.836 9.207-2.257 0-4.213-.847-5.506-2.382-1.332-1.583-1.839-3.734-1.428-6.058.899-5.077 5.76-9.207 10.838-9.207 2.257 0 4.213.847 5.506 2.383 1.331 1.582 1.838 3.733 1.426 6.057zm47.575 0c-.897 5.078-5.759 9.207-10.836 9.207-2.257 0-4.213-.847-5.506-2.382-1.333-1.583-1.84-3.734-1.428-6.058.899-5.077 5.76-9.207 10.837-9.207 2.257 0 4.213.847 5.507 2.383 1.33 1.582 1.837 3.733 1.426 6.057zm10.632-16.912l-1.385 13.116a2.206 2.206 0 01-2.2 1.974h-2.487c-.053-2.652-.939-5.101-2.596-7.071-2.15-2.553-5.309-3.959-8.897-3.959-6.5 0-12.73 4.806-14.727 11.03h-4.668l4.181-37.5h12.624c1.887 0 3.69.804 4.948 2.206l13.553 15.098a6.63 6.63 0 011.654 5.106zm-18.99-17.284a2.218 2.218 0 00-1.633-.714h-5.532a2.21 2.21 0 00-2.205 2.022L64.072 42.73a2.209 2.209 0 002.205 2.389h18.808a2.203 2.203 0 001.632-3.696l-12.17-13.237zm-5.866 12.52l.737-8.823h2.523l8.113 8.824H68.682zm-9.043 33.09A2.21 2.21 0 0157.426 76h-9.958a2.21 2.21 0 01-2.213-2.206 2.21 2.21 0 012.213-2.206h9.958a2.21 2.21 0 012.213 2.206zm-47.575 0A2.21 2.21 0 019.85 76H4.32a2.21 2.21 0 01-2.213-2.206 2.21 2.21 0 012.213-2.206h5.532a2.21 2.21 0 012.213 2.206z" fill="#000" stroke="#F8F8F8" stroke-width="1.2"/><path d="M27.553 18.647h15.49a2.21 2.21 0 002.212-2.206 2.21 2.21 0 00-2.212-2.206h-15.49a2.21 2.21 0 00-2.213 2.206 2.21 2.21 0 002.213 2.206zM12.064 16.441a2.21 2.21 0 002.213 2.206h4.425a2.21 2.21 0 002.213-2.206 2.21 2.21 0 00-2.213-2.206h-4.425a2.21 2.21 0 00-2.213 2.206zM40.83 29.677a2.21 2.21 0 00-2.213-2.206h-4.425a2.21 2.21 0 00-2.213 2.206 2.21 2.21 0 002.213 2.205h4.425a2.21 2.21 0 002.213-2.206zM25.34 27.47H9.851a2.21 2.21 0 00-2.213 2.207 2.21 2.21 0 002.213 2.205h15.49a2.21 2.21 0 002.212-2.206 2.21 2.21 0 00-2.213-2.205zM5.426 40.706a2.21 2.21 0 00-2.213 2.206 2.21 2.21 0 002.213 2.206h28.766a2.21 2.21 0 002.212-2.206 2.21 2.21 0 00-2.212-2.206H5.426z" fill="#18A865"/><path d="M27.553 18.647h15.49a2.21 2.21 0 002.212-2.206 2.21 2.21 0 00-2.212-2.206h-15.49a2.21 2.21 0 00-2.213 2.206 2.21 2.21 0 002.213 2.206zM12.064 16.441a2.21 2.21 0 002.213 2.206h4.425a2.21 2.21 0 002.213-2.206 2.21 2.21 0 00-2.213-2.206h-4.425a2.21 2.21 0 00-2.213 2.206zM40.83 29.677a2.21 2.21 0 00-2.213-2.206h-4.425a2.21 2.21 0 00-2.213 2.206 2.21 2.21 0 002.213 2.205h4.425a2.21 2.21 0 002.213-2.206zM25.34 27.47H9.851a2.21 2.21 0 00-2.213 2.207 2.21 2.21 0 002.213 2.205h15.49a2.21 2.21 0 002.212-2.206 2.21 2.21 0 00-2.213-2.205zM5.426 40.706a2.21 2.21 0 00-2.213 2.206 2.21 2.21 0 002.213 2.206h28.766a2.21 2.21 0 002.212-2.206 2.21 2.21 0 00-2.212-2.206H5.426z" stroke="#F8F8F8" stroke-width="1.2"/></symbol><symbol fill="none" viewBox="0 0 20 4" id="dot" xmlns="http://www.w3.org/2000/svg"><path d="M2 4a2 2 0 100-4 2 2 0 000 4zM10 4a2 2 0 100-4 2 2 0 000 4zM18 4a2 2 0 100-4 2 2 0 000 4z"/></symbol><symbol fill="none" viewBox="0 0 9 9" id="empty" xmlns="http://www.w3.org/2000/svg"><path d="M4.5.445l1.164 2.898 3.116.212-2.397 2.002.762 3.029L4.5 6.926l-2.645 1.66.762-3.029L.22 3.555l3.116-.212L4.5.445z" fill="#D5D8CA"/></symbol><symbol fill="none" viewBox="0 0 23 23" id="entrance-doors" xmlns="http://www.w3.org/2000/svg"><path d="M9.215 22.4a.31.31 0 01-.31-.31V.954a.31.31 0 01.341-.31l9.924 1.004a.311.311 0 01.28.31v15.618a.31.31 0 11-.622 0V2.239L9.526 1.3v20.435l9.302-1.26v-5.085a.311.311 0 01.622 0v5.355a.31.31 0 01-.269.308l-9.924 1.346a.31.31 0 01-.042.002z"/><path d="M4.609 21.252a.31.31 0 01-.311-.31V1.948a.31.31 0 01.31-.31h4.607a.31.31 0 010 .62H4.919v18.682a.311.311 0 01-.31.311z"/><path d="M6.364 21.252a.311.311 0 01-.31-.31V3.763a.31.31 0 01.31-.31h2.849a.31.31 0 010 .621H6.675v16.866a.31.31 0 01-.311.311z"/><path d="M9.213 21.252H1.31a.31.31 0 110-.621h7.902a.311.311 0 010 .621zM22.416 21.252h-4.758a.31.31 0 110-.621h4.758a.311.311 0 010 .621zM11.372 12.645a1.123 1.123 0 110-2.247 1.123 1.123 0 010 2.247zm0-1.625a.502.502 0 100 1.003.502.502 0 000-1.003z"/></symbol><symbol fill="none" viewBox="0 0 16 12" id="eye" xmlns="http://www.w3.org/2000/svg"><path d="M14.942 5.221a1.27 1.27 0 010 1.558C13.822 8.24 11.136 11.25 8 11.25c-3.137 0-5.823-3.01-6.943-4.471a1.269 1.269 0 010-1.558C2.177 3.76 4.863.75 8 .75c3.136 0 5.823 3.01 6.942 4.471v0z" stroke="#18A865" stroke-width="1.5" stroke-linecap="round" stroke-linejoin="round"/><path d="M8 8.25a2.25 2.25 0 100-4.5 2.25 2.25 0 000 4.5z" stroke="#18A865" stroke-width="1.5" stroke-linecap="round" stroke-linejoin="round"/></symbol><symbol fill="none" viewBox="0 0 18 18" id="fb" xmlns="http://www.w3.org/2000/svg"><path d="M17.309 9.45c0-4.677-3.785-8.471-8.45-8.471C4.196.979.41 4.773.41 9.449c0 4.1 2.907 7.513 6.76 8.301v-5.76H5.48V9.45h1.69V7.331a2.964 2.964 0 012.957-2.964h2.112v2.54h-1.69a.849.849 0 00-.845.848v1.694h2.535v2.541H9.704v5.887c4.267-.423 7.605-4.032 7.605-8.428z" fill="#7E7F81"/></symbol><symbol fill="none" viewBox="0 0 10 8" id="ga" xmlns="http://www.w3.org/2000/svg"><path d="M7.809.964a.75.75 0 011.07 1.05l-3.99 4.99a.75.75 0 01-1.08.02L1.163 4.378a.75.75 0 111.06-1.06L4.317 5.41 7.79.986a.266.266 0 01.02-.022h-.001z" fill="#18A865"/></symbol><symbol fill="none" viewBox="0 0 84 84" id="garanty" xmlns="http://www.w3.org/2000/svg"><path d="M41.996 15.58c-14.567 0-26.42 11.852-26.42 26.42 0 14.568 11.853 26.42 26.42 26.42 14.568 0 26.42-11.852 26.42-26.42 0-14.568-11.851-26.42-26.42-26.42zm0 48.036C30.077 63.616 20.38 53.92 20.38 42s9.697-21.616 21.616-21.616c11.92 0 21.617 9.697 21.617 21.616 0 11.92-9.697 21.616-21.617 21.616z" fill="#000" stroke="#F8F8F8" stroke-width="2"/><path d="M52.307 33.096L39.595 45.81l-7.91-7.909a2.402 2.402 0 00-3.396 3.397l9.607 9.607a2.394 2.394 0 001.698.703c.615 0 1.23-.234 1.699-.703l14.41-14.41a2.402 2.402 0 00-3.396-3.398z" fill="#18A865" stroke="#F8F8F8" stroke-width="2"/><path d="M79.561 25.16l-8.389-5.021-1.88-7.791a7.174 7.174 0 00-7.56-5.493l-9.551.74-5.512-4.865a7.176 7.176 0 00-9.345 0l-5.512 4.864-9.55-.739a7.173 7.173 0 00-7.539 5.407l-2.619 8.345L4.44 25.16a7.176 7.176 0 00-2.887 8.888l3.267 7.919-3.267 7.918a7.175 7.175 0 002.887 8.888l8.374 4.99 1.889 7.822a7.172 7.172 0 006.99 5.515c.507 0-.062.02 10.02-.753l5.612 4.923A7.189 7.189 0 0041.997 83a7.19 7.19 0 004.672-1.73c.01-.007 5.612-4.923 5.612-4.923l9.45.731a7.176 7.176 0 007.56-5.493l1.882-7.791c10.255-6.139 8.08-4.831 8.388-5.021a7.176 7.176 0 002.888-8.888l-3.268-7.919 3.268-7.918a7.175 7.175 0 00-2.888-8.888zm-5.199 17.723l3.646 8.835a2.392 2.392 0 01-.953 2.956l-9.214 5.516c-.553.331-.95.87-1.101 1.497l-2.118 8.771a2.39 2.39 0 01-2.52 1.831l-10.46-.81a2.403 2.403 0 00-1.77.59l-6.33 5.555a2.391 2.391 0 01-3.092 0l-6.33-5.555a2.402 2.402 0 00-1.769-.59l-10.46.81a2.391 2.391 0 01-2.52-1.831l-2.126-8.805a2.402 2.402 0 00-1.105-1.5l-9.197-5.48a2.392 2.392 0 01-.95-2.955l3.645-8.835a2.401 2.401 0 000-1.833l-3.646-8.835a2.392 2.392 0 01.95-2.954l8.405-4.994a2.401 2.401 0 001.065-1.346c3.098-9.877 2.923-9.297 2.96-9.446a2.388 2.388 0 012.52-1.83l10.562.817a2.402 2.402 0 001.775-.594l6.223-5.493a2.392 2.392 0 013.088 0l6.224 5.493c.487.43 1.128.644 1.774.594l10.564-.818a2.392 2.392 0 012.52 1.831l2.118 8.77a2.402 2.402 0 001.1 1.498l9.215 5.516a2.391 2.391 0 01.953 2.956l-3.646 8.835a2.402 2.402 0 000 1.833z" fill="#000" stroke="#F8F8F8" stroke-width="2"/></symbol><symbol fill="none" viewBox="0 0 18 18" id="instagram" xmlns="http://www.w3.org/2000/svg"><path d="M10.442 9.428a1.617 1.617 0 11-3.235 0 1.617 1.617 0 013.235 0z" fill="#7E7F81"/><path d="M12.607 6.567a1.503 1.503 0 00-.362-.558 1.502 1.502 0 00-.558-.363c-.171-.066-.428-.145-.901-.166-.512-.024-.665-.029-1.96-.029-1.296 0-1.45.005-1.961.028-.473.022-.73.101-.901.167-.21.078-.402.202-.558.363a1.504 1.504 0 00-.363.558c-.066.171-.145.428-.167.901-.023.512-.028.665-.028 1.96 0 1.296.005 1.45.028 1.961.022.474.1.73.167.901.078.211.202.402.363.558.156.161.347.285.558.363.17.067.428.146.9.167.512.024.666.028 1.961.028 1.296 0 1.45-.005 1.96-.028.474-.021.73-.1.902-.167.423-.163.757-.498.92-.92.067-.172.146-.428.168-.902.023-.511.028-.665.028-1.96 0-1.296-.005-1.45-.028-1.96-.022-.474-.101-.73-.168-.902zM8.825 11.92a2.491 2.491 0 110-4.983 2.491 2.491 0 010 4.983zm2.59-4.499a.582.582 0 110-1.164.582.582 0 010 1.164z" fill="#7E7F81"/><path d="M8.824.979a8.45 8.45 0 000 16.898 8.45 8.45 0 000-16.898zm4.823 10.45c-.024.516-.106.868-.226 1.177a2.481 2.481 0 01-1.419 1.419c-.308.12-.66.202-1.177.225-.518.024-.683.03-2 .03-1.318 0-1.483-.006-2-.03-.517-.023-.87-.105-1.179-.225a2.376 2.376 0 01-.859-.56 2.377 2.377 0 01-.56-.86c-.12-.308-.202-.66-.225-1.177-.024-.517-.03-.683-.03-2 0-1.318.006-1.483.03-2 .023-.517.105-.87.225-1.178.122-.324.313-.617.56-.86.242-.246.536-.437.86-.56.308-.119.66-.201 1.177-.225.517-.023.683-.029 2-.029 1.318 0 1.483.006 2 .03.517.023.87.105 1.178.225.324.122.617.313.86.56.247.242.438.535.56.859.12.308.201.661.225 1.178.024.517.03.682.03 2 0 1.317-.006 1.483-.03 2z" fill="#7E7F81"/></symbol><symbol fill="none" viewBox="0 0 19 24" id="interior-doors" xmlns="http://www.w3.org/2000/svg"><path d="M9.298 10.915H8.085v.808h1.213v-.808z"/><path d="M19 21.021h-2.425V1.965a.404.404 0 00-.338-.399L6.939.006a.404.404 0 00-.47.398v.404H2.425a.404.404 0 00-.405.405v20.212H0v.809h6.468v.404a.403.403 0 00.455.401l9.298-1.17a.397.397 0 00.124-.04H19v-.808zm-16.17.404V1.617h3.638v19.808H2.83zm4.447.405V.882l8.489 1.425V21.11l-8.49 1.07v-.351z"/></symbol><symbol fill="none" viewBox="0 0 10 13" id="location" xmlns="http://www.w3.org/2000/svg"><path d="M5 0C2.242 0 0 2.219 0 4.949c0 1.666.975 3.06 2.108 4.034.359.305.984.791 1.542 1.509.617.8 1.175 1.658 1.35 2.235.175-.577.733-1.435 1.35-2.235.558-.718 1.183-1.204 1.542-1.51C9.025 8.01 10 6.615 10 4.95 10 2.219 7.758 0 5 0zm0 2.112a2.892 2.892 0 012.027.83 2.836 2.836 0 01.84 2.007 2.812 2.812 0 01-.84 2.006A2.869 2.869 0 015 7.786c-.76 0-1.49-.298-2.027-.83a2.823 2.823 0 01-.84-2.007c0-.752.302-1.474.84-2.006A2.882 2.882 0 015 2.112z" fill="#000"/></symbol><symbol fill="none" viewBox="0 0 49 49" id="logo" xmlns="http://www.w3.org/2000/svg"><path fill-rule="evenodd" clip-rule="evenodd" d="M20.175.186c-.191.122-.633.524-.983.892-.35.369-.776.745-.948.838a1.545 1.545 0 01-.607.167c-.193 0-.295-.065-.295-.188 0-.103.083-.477.184-.83.1-.354.154-.72.119-.813-.035-.094-.194-.17-.353-.17-.158 0-.85.292-1.535.649-.686.357-1.699.98-2.25 1.384-.552.403-1.646 1.326-2.43 2.05-.786.725-1.888 1.847-2.45 2.494a64.365 64.365 0 00-2 2.451c-.539.701-1.57 2.176-2.29 3.277-.72 1.1-1.575 2.49-1.897 3.088a29.865 29.865 0 00-1.045 2.179c-.252.6-.59 1.621-.75 2.269-.16.647-.371 1.74-.468 2.429C.08 23.04 0 24.287 0 25.122s.054 1.968.121 2.517c.067.548.225 1.527.353 2.175.127.648.46 1.878.74 2.735.28.857.801 2.155 1.158 2.885.357.73.982 1.83 1.39 2.446a26.127 26.127 0 001.602 2.126c.474.554 1.243 1.326 1.709 1.715.466.389.975.796 1.132.906l.286.198-.343.007c-.27.005-.198.054.338.228.374.122 1.077.423 1.56.669.484.246 1.322.746 1.862 1.111s1.425.906 1.966 1.201c.54.296 1.569.78 2.285 1.079a28.81 28.81 0 002.737.941c.788.22 2.1.521 2.917.67 1.29.234 1.869.269 4.431.269 2.563 0 3.143-.035 4.432-.27.816-.148 2.129-.449 2.917-.669.788-.22 2.005-.639 2.705-.93a34.403 34.403 0 001.88-.845 30.837 30.837 0 001.63-.946c.56-.347 1.444-.959 1.965-1.36.52-.4 1.493-1.287 2.16-1.972.668-.685 1.566-1.748 1.995-2.363.43-.615 1.062-1.7 1.405-2.413.342-.712.757-1.719.922-2.237.164-.518.38-1.34.48-1.825.1-.486.213-1.414.25-2.062.037-.648.004-2.238-.074-3.532-.077-1.295-.243-2.937-.369-3.65a20.561 20.561 0 00-.573-2.345 18.393 18.393 0 00-.816-2.001c-.259-.524-.69-1.297-.959-1.718a24.537 24.537 0 00-1.197-1.662 22.748 22.748 0 00-1.69-1.84 27.547 27.547 0 00-1.92-1.667 26.347 26.347 0 00-2.058-1.392c-.614-.368-1.507-.824-1.985-1.013a11.378 11.378 0 00-1.735-.506c-.477-.09-1.764-.197-2.861-.24-1.097-.042-1.995-.04-1.995.007 0 .046.235.19.521.318.287.13 1.1.308 1.807.397.707.089 1.342.22 1.412.292.09.09.092.188.01.322-.066.105-.298.29-.517.409-.241.131-.635.216-1.005.216-.41 0-1.053-.155-1.967-.475a32.385 32.385 0 00-2.284-.706c-.509-.127-1.264-.23-1.678-.23-.514-.001-.881.068-1.156.217-.274.15-.415.317-.439.523-.024.199.036.34.174.413.115.061.52.147.902.192.382.044.785.107.896.14.123.037.203.175.203.354 0 .162-.051.391-.113.51-.063.118-.278.274-.48.345-.202.072-.674.13-1.05.13s-1.053.059-1.505.13c-.452.072-1.034.206-1.293.3-.26.093-.641.336-.848.54l-.376.372-1.763.092c-.97.051-2.11.15-2.534.222-.423.07-.865.2-.982.287-.117.086-.17.201-.118.254.052.053.468.115.925.139.457.023 1.747-.015 2.866-.086 1.119-.07 2.445-.21 2.947-.31.502-.1 1.714-.234 2.692-.296 1.154-.074 2.576-.073 4.047.003 1.247.064 2.899.222 3.67.351.772.13 1.839.374 2.37.544.532.17 1.314.493 1.738.718a8.435 8.435 0 011.454 1.039c.375.346.945 1.017 1.266 1.491.322.475.792 1.287 1.045 1.805.254.518.529 1.154.611 1.413.083.26.222.648.31.863l.161.392.235-.303c.128-.167.31-.304.402-.304.092 0 .216.13.275.287.059.158.168.86.242 1.56.074.7.102 1.628.063 2.061-.04.433-.122.921-.183 1.085-.06.164-.068.324-.016.357.051.032.192-.017.313-.11.12-.093.257-.17.303-.173.047-.002-.255.524-.67 1.17a21.502 21.502 0 00-1.25 2.267 37.17 37.17 0 00-.938 2.33c-.243.68-.742 2.04-1.107 3.023-.366.983-.875 2.152-1.13 2.598-.256.446-.69 1.02-.964 1.275-.274.255-.89.663-1.366.906a10.13 10.13 0 01-1.792.67c-.509.124-1.471.312-2.139.417-.723.113-2.382.217-4.104.258-1.844.045-3.447.02-4.426-.07-.844-.075-2.015-.262-2.601-.415-.586-.152-1.367-.413-1.735-.58-.369-.166-1.123-.602-1.677-.969a60.046 60.046 0 01-2.568-1.857c-.858-.655-2.033-1.668-2.61-2.252-.576-.584-1.258-1.38-1.515-1.768a16.94 16.94 0 01-.875-1.531 14.686 14.686 0 01-.703-1.781 24.242 24.242 0 01-.505-2.002c-.169-.846-.207-1.593-.202-3.93.006-2.426.047-3.11.258-4.3.138-.78.356-1.73.485-2.11.129-.383.447-1.096.707-1.587.26-.491.747-1.239 1.082-1.661.335-.423.89-1.05 1.232-1.392.343-.343.987-.908 1.432-1.254.445-.347 1.416-1.004 2.156-1.46.741-.457 2.042-1.2 2.89-1.652.85-.452 2.25-1.111 3.114-1.464.863-.352 1.892-.807 2.287-1.01.394-.202.927-.562 1.183-.798.257-.236.537-.567.623-.736a3.27 3.27 0 00.234-.733c.046-.25.024-.528-.052-.674-.112-.213-.169-.23-.387-.113-.14.075-.45.314-.689.531-.239.217-.512.395-.607.395-.095 0-.173-.058-.173-.128 0-.071.137-.521.304-1 .231-.665.29-1.016.247-1.475-.032-.332-.005-.812.059-1.068.08-.325.078-.503-.01-.593-.09-.092-.211-.07-.43.076-.176.117-.478.573-.711 1.073-.25.536-.494.898-.638.944-.127.041-.289.017-.359-.054-.07-.071-.122-.328-.116-.571l.01-.442-.19.29c-.104.16-.42.605-.703.989s-.748.85-1.034 1.034c-.287.185-.667.337-.845.337-.23 0-.324-.06-.324-.205 0-.112.584-.8 1.299-1.53.714-.73 1.244-1.327 1.178-1.327-.066 0-.374.164-.685.365-.31.2-.896.651-1.302 1.002-.405.35-.883.714-1.06.807-.306.161-.33.155-.455-.124a1.946 1.946 0 01-.13-.672c.002-.264.228-.727.756-1.546.415-.643.74-1.248.721-1.345-.018-.096-.085-.192-.149-.214-.063-.021-.271.061-.462.183zm1.353 10.626c-.21.062-.412.194-.45.293-.037.1.02.27.125.378.14.142.394.197.912.196.396-.001.884-.072 1.086-.158.202-.087.398-.238.436-.338a.388.388 0 00-.064-.342c-.09-.11-.378-.159-.898-.151-.421.006-.938.06-1.147.122zm-2.567 2.586l-.29.24.933-.046c.512-.025 1.006-.093 1.098-.151.122-.078.043-.13-.296-.191a5.952 5.952 0 00-.81-.089 1.143 1.143 0 00-.635.237zm7.977 3.129c-.187.103-.6.149-1.17.13-.606-.02-.938.021-1.069.132-.127.108-.189.346-.189.73 0 .455.035.558.17.504.094-.036.254.018.356.122.101.103.337.188.523.188.258 0 .339.054.339.228 0 .125-.051.364-.113.53-.087.231-.194.302-.459.302-.19 0-.581-.082-.87-.181-.471-.164-.583-.164-1.123 0-.33.1-.837.184-1.127.187-.29.004-.762.107-1.049.23l-.52.222.376.006c.206.004.376.06.376.125 0 .064-.092.117-.204.117-.112 0-.268.106-.348.236-.125.205-.115.235.079.235.122 0 .305.032.405.072.1.04.183.14.183.226 0 .084-.065.18-.144.213-.08.033-.009.064.157.069.167.005.429.11.582.233.154.123.408.242.565.265.223.032.285.11.282.352-.004.294.026.31.52.294.51-.016.525-.006.56.364.035.366.006.394-.81.786-.464.223-1.146.472-1.514.552-.368.08-.61.184-.538.229.078.049-.021.137-.244.216a2.347 2.347 0 01-.612.133c-.18 0-.205.033-.104.136.093.095.098.202.016.36-.065.122-.28.324-.48.447-.3.186-.328.237-.166.3.108.043.196.143.196.223 0 .08-.113.198-.252.26-.22.101-.164.14.459.318.39.112.741.254.779.316.038.062-.026.116-.14.12-.157.006-.137.039.079.13.182.077.853.095 1.813.049 1.405-.068 1.535-.057 1.676.148.084.121.27.258.413.304.143.046.26.125.26.174 0 .049-.267.217-.594.373-.327.156-.707.268-.845.25-.174-.023-.4.136-.749.525-.441.494-.515.536-.638.365-.076-.107-.206-.422-.289-.7a39.157 39.157 0 01-.184-.639c-.026-.096-.203-.099-.651-.01-.34.067-.734.2-.877.293-.143.094-.26.24-.26.325 0 .084-.156.188-.347.23-.19.043-.347.124-.347.18 0 .056.058.138.128.182.09.056.08.111-.029.182-.086.055-.313.103-.503.106-.191.003-.442.079-.558.168-.186.145-.19.174-.03.266.164.093.164.128.002.364a.623.623 0 01-.461.26c-.156 0-.283.053-.283.118s.078.118.174.118c.095 0 .173.08.173.176 0 .098-.1.177-.222.177s-.304.032-.404.072c-.101.039-.183.115-.183.168 0 .054.143.114.318.135.283.033.321.09.353.526.026.366-.019.53-.176.648a2.13 2.13 0 00-.41.478c-.11.176-.2.408-.2.515 0 .16.03.169.172.048.14-.117.174-.116.174.007 0 .095.1.056.267-.104.148-.14.352-.256.455-.256.103 0 .22.106.26.236.041.13.153.235.25.235.096 0 .232.152.3.337.117.314.16.333.655.289.291-.026.718-.104.947-.173.3-.09.484-.09.657.005.132.072.556.131.942.131h.7l.319-.587c.201-.373.396-.588.53-.589.118 0 .241-.108.274-.237.043-.165.158-.236.386-.236.209 0 .35.075.391.207.036.113.228.3.426.414.284.164.345.264.292.47-.037.145-.006.436.068.646.075.21.205.383.29.383.083 0 .202.134.263.297.061.164.19.329.286.366.149.058.175.426.175 2.397 0 1.925-.03 2.353-.173 2.474-.095.081-.173.209-.173.284 0 .075-.157.23-.347.345-.191.115-.347.278-.347.361 0 .108.284.173.954.22.524.038 1.383.038 1.907.002.804-.057.954-.1.954-.273 0-.112-.103-.232-.23-.266-.126-.034-.279-.193-.339-.354-.06-.162-.177-.317-.26-.345-.113-.038-.16-.572-.194-2.19l-.043-2.14h.36c.198 0 .457-.1.577-.222.12-.122.404-.285.632-.361.253-.085.615-.377.928-.746.47-.556.536-.596.784-.471.149.075.525.245.835.379.31.134.737.243.95.243.258 0 .424.073.5.22.065.12.273.252.464.29.191.04.466.192.61.34l.264.268.103-.5c.096-.46.133-.5.47-.5.208 0 .534-.127.757-.295.216-.162.457-.294.537-.294.079 0 .222-.113.317-.252.157-.229.152-.269-.057-.441-.148-.122-.267-.424-.33-.838a6.998 6.998 0 00-.273-1.118c-.15-.403-.151-.477-.01-.51.09-.02.163-.086.163-.146s-.221-.272-.491-.472c-.27-.2-.476-.439-.458-.53.022-.109-.066-.168-.251-.168-.157 0-.55-.062-.875-.138-.328-.077-.53-.176-.456-.223.09-.056.049-.131-.123-.224-.14-.077-.406-.308-.59-.513-.183-.206-.335-.43-.337-.5-.002-.073.138-.106.33-.077.183.027.369-.009.412-.08.046-.076-.012-.129-.142-.129-.121 0-.306-.097-.412-.215-.105-.118-.192-.317-.193-.441a.884.884 0 00-.103-.39c-.079-.127-.118-.107-.18.092a.917.917 0 01-.33.418c-.139.09-.59.197-1.004.238-.494.05-.93.02-1.271-.083-.433-.13-.527-.211-.557-.477-.03-.256.026-.343.28-.441.173-.068.588-.134.922-.148l.607-.024-.066-.574c-.062-.545-.054-.569.183-.492.137.044.25.048.25.01 0-.04-.105-.28-.232-.534s-.231-.57-.231-.701c0-.132-.104-.305-.231-.386-.128-.081-.232-.212-.232-.291 0-.08-.1-.2-.223-.267a1.114 1.114 0 00-.445-.121c-.121 0-.313-.104-.426-.231a.545.545 0 01-.13-.534.652.652 0 01.36-.414c.158-.061.286-.18.286-.263 0-.083.112-.203.248-.267.137-.064.306-.302.376-.529.09-.287.207-.423.388-.45.143-.02.26-.062.26-.092s-.182-.24-.405-.466c-.222-.227-.404-.494-.404-.593 0-.1.054-.283.12-.408.102-.196.08-.228-.16-.228-.153 0-.337-.072-.409-.16-.079-.097-.104-.383-.064-.735.061-.53.052-.559-.11-.357-.137.174-.262.204-.585.142-.36-.069-.41-.121-.41-.423 0-.263-.082-.388-.342-.525a2.006 2.006 0 00-.786-.18c-.245 0-.495-.044-.555-.099-.061-.055-.238-.029-.399.06zm-13.58 2.085c-.218.347-.537.924-.71 1.281-.171.358-.28.736-.24.84.039.105.194.19.344.19.15 0 .383-.12.52-.268.136-.147.33-.505.431-.795.102-.29.229-.76.282-1.047.054-.286.07-.59.039-.677-.033-.086-.106-.156-.164-.156-.058 0-.283.284-.502.632zm13.703 3.61c.123.068.224.2.224.293 0 .094-.143.202-.318.24a4.178 4.178 0 00-.578.176c-.143.059-.26.16-.26.224s.09.08.202.037c.19-.073.19-.06.016.208a.946.946 0 01-.52.356 2.669 2.669 0 00-.61.221c-.217.12-.242.173-.115.254.088.057.122.104.076.106-.046 0-.32-.115-.607-.258-.436-.215-.523-.314-.523-.588 0-.224.144-.482.449-.801.35-.369.535-.471.844-.471.217 0 .453.059.524.131.095.097.2.081.395-.059.147-.104.337-.19.422-.19.086 0 .256.055.38.122zm2.16 5.639c.118.14.097.225-.115.46l-.26.29.447-.07.447-.071-.071.36c-.057.29-.037.348.102.293.095-.037.173-.044.173-.016 0 .028-.161.238-.359.467-.303.352-.325.416-.144.415.118 0 .492-.133.832-.294.34-.161.666-.264.723-.227.057.036.104.189.104.34 0 .151-.087.309-.193.35-.135.053-.156.113-.07.2.087.088.193.087.359-.003.13-.071.265-.129.301-.129.036 0 .066.187.066.415 0 .337-.056.437-.297.53a2.083 2.083 0 01-.627.115.698.698 0 00-.559.294.695.695 0 01-.57.295c-.196 0-.463-.115-.628-.27-.198-.188-.33-.502-.432-1.027-.098-.51-.12-1.14-.064-1.938.045-.65.107-1.224.137-1.277.031-.053.169-.001.305.115.137.116.314.288.393.383zm-2.304.216c.02.146-.016.265-.08.265-.065 0-.264.132-.442.292-.178.161-.389.349-.468.417a.448.448 0 00-.145.293c0 .106.069.141.185.096.17-.067.17-.042 0 .292-.102.2-.185.602-.185.892 0 .397-.047.536-.192.565-.106.02-.253.223-.328.45-.11.335-.2.419-.486.448-.297.03-.389-.03-.598-.39-.135-.233-.246-.526-.246-.65 0-.152.057-.203.174-.157.134.052.173-.028.173-.357 0-.37.036-.425.278-.425.219 0 .266-.049.22-.228-.033-.126.057-.59.2-1.03.142-.442.311-.871.376-.955.08-.102.35-.14.823-.118.63.031.708.063.741.3z" fill="#18A865"/></symbol><symbol fill="none" viewBox="0 0 93 81" id="pay" xmlns="http://www.w3.org/2000/svg"><path fill-rule="evenodd" clip-rule="evenodd" d="M.98 10.184c0-5.113 4.068-9.33 9.175-9.33h64.773c5.107 0 9.176 4.217 9.176 9.33v20.358a1.98 1.98 0 01-3.958 0V10.184c0-3.006-2.376-5.371-5.218-5.371H10.155c-2.842 0-5.217 2.365-5.217 5.372V46.94c0 3.006 2.375 5.371 5.217 5.371h28.428a1.98 1.98 0 010 3.959H10.155C5.048 56.27.98 52.054.98 46.94V10.184z" fill="#000" stroke="#F8F8F8"/><path fill-rule="evenodd" clip-rule="evenodd" d="M.98 14.708a1.98 1.98 0 011.978-1.979h79.167a1.98 1.98 0 010 3.959H2.958a1.98 1.98 0 01-1.979-1.98z" fill="#000" stroke="#F8F8F8"/><path fill-rule="evenodd" clip-rule="evenodd" d="M8.896 34.5a1.98 1.98 0 011.979-1.98h7.917a1.98 1.98 0 010 3.96h-7.917a1.98 1.98 0 01-1.98-1.98zM8.896 44.396a1.98 1.98 0 011.979-1.98h15.833a1.98 1.98 0 010 3.959H10.875a1.98 1.98 0 01-1.98-1.98z" fill="#18A865" stroke="#F8F8F8"/><path fill-rule="evenodd" clip-rule="evenodd" d="M70.25 40.438c-9.838 0-17.813 7.974-17.813 17.812 0 9.838 7.975 17.813 17.813 17.813s17.813-7.975 17.813-17.813-7.975-17.813-17.813-17.813zM48.48 58.25c0-12.024 9.746-21.77 21.77-21.77s21.77 9.746 21.77 21.77-9.746 21.77-21.77 21.77-21.77-9.746-21.77-21.77z" fill="#000" stroke="#F8F8F8"/><path fill-rule="evenodd" clip-rule="evenodd" d="M76.767 54.871a1.98 1.98 0 012.8 2.8l-7.917 7.916a1.98 1.98 0 01-2.8 0l-5.937-5.937a1.98 1.98 0 012.8-2.8l4.537 4.539 6.517-6.518z" fill="#18A865" stroke="#F8F8F8"/></symbol><symbol fill="none" viewBox="0 0 6 13" id="prev" xmlns="http://www.w3.org/2000/svg"><path d="M5.727 12.041l.273-.27L.545 6.357 6 .943l-.273-.27L0 6.357l5.727 5.684z" fill="#000"/></symbol><symbol fill="none" viewBox="0 0 40 40" id="quote" xmlns="http://www.w3.org/2000/svg"><path fill-rule="evenodd" clip-rule="evenodd" d="M12.74 26.101l4.118 2.47A1.25 1.25 0 0018.75 27.5v-8.75c0-4.139-3.361-7.5-7.5-7.5a7.504 7.504 0 00-7.5 7.5 7.504 7.504 0 008.99 7.351zm17.5 0l4.118 2.47A1.25 1.25 0 0036.25 27.5v-8.75c0-4.139-3.361-7.5-7.5-7.5a7.504 7.504 0 00-7.5 7.5 7.504 7.504 0 008.99 7.351zm.848-2.406a1.245 1.245 0 00-.982-.131 5.002 5.002 0 01-6.356-4.814c0-2.76 2.24-5 5-5s5 2.24 5 5v6.543l-2.663-1.598zm-17.5 0a1.245 1.245 0 00-.982-.131A5.002 5.002 0 016.25 18.75c0-2.76 2.24-5 5-5s5 2.24 5 5v6.543l-2.662-1.598z" fill="#18A865"/></symbol><symbol fill="none" viewBox="0 0 15 15" id="ruler" xmlns="http://www.w3.org/2000/svg"><g clip-path="url(#ayclip0_3_1278)" fill="#000"><path d="M13.406 3.368a.934.934 0 00-.276-.665L10.698.274a.942.942 0 00-1.329 0L.276 9.355A.933.933 0 000 10.02c0 .251.098.487.276.665l2.432 2.428a.938.938 0 001.33 0l9.092-9.08a.934.934 0 00.276-.665zm-.897.043l-.555.554-.711-.71a.44.44 0 10-.621.622l.71.71-.598.597-.711-.71a.44.44 0 10-.622.621l.71.71-.597.597-.712-.71a.44.44 0 10-.62.622l.71.71-.598.597-.712-.71a.44.44 0 10-.62.621l.71.71-.599.597-.711-.71a.44.44 0 10-.621.622l.71.709-.598.597-.711-.71a.44.44 0 10-.621.622l.71.71-.598.597-.711-.71a.44.44 0 10-.621.621l.71.71-.595.594a.062.062 0 01-.087 0L.897 10.063a.06.06 0 01-.018-.043.06.06 0 01.018-.043L9.99.897a.062.062 0 01.087 0l2.432 2.428a.06.06 0 01.018.043.06.06 0 01-.018.043zM14.56 5.998h-1.618a.44.44 0 000 .88h.556L6.867 13.5v-.557a.44.44 0 00-.88 0v1.617c0 .242.198.44.44.44h1.619a.44.44 0 000-.88h-.557l6.633-6.623v.556a.44.44 0 00.879 0V6.438a.44.44 0 00-.44-.44z"/></g><defs><clipPath id="ayclip0_3_1278"><path fill="#fff" d="M0 0h15v15H0z"/></clipPath></defs></symbol><symbol fill="none" viewBox="0 0 15 13" id="scale" xmlns="http://www.w3.org/2000/svg"><g clip-path="url(#azclip0_5_2477)"><path d="M6.63 1H1.944a.469.469 0 00-.468.47v14.06c0 .26.21.47.468.47h4.688c.258 0 .468-.21.468-.47V1.47A.469.469 0 006.631 1zm-.468 14.062h-3.75v-1.406h2.344v-.938H2.412v-1.406h1.406v-.937H2.412V8.969h2.344V8.03H2.412V6.625h1.406v-.937H2.412V4.28h2.344v-.937H2.412V1.938h3.75v13.124z" fill="#000"/><path d="M13.936 12.86L12.39 14.4V2.6l1.542 1.542.661-.661-2.343-2.344a.469.469 0 00-.661 0L9.244 3.48l.661.66L11.452 2.6V14.4L9.91 12.86l-.661.661 2.343 2.344a.469.469 0 00.661 0l2.344-2.344-.66-.66z" fill="#18A865"/></g><defs><clipPath id="azclip0_5_2477"><path fill="#fff" transform="translate(0 .4)" d="M0 0h15v12H0z"/></clipPath></defs></symbol><symbol fill="none" viewBox="0 0 17 17" id="search" xmlns="http://www.w3.org/2000/svg"><path d="M15.74 14.486l-2.118-2.107a6.986 6.986 0 001.491-4.322 7.057 7.057 0 10-7.056 7.056 6.986 6.986 0 004.322-1.49l2.107 2.116a.882.882 0 001.253 0 .882.882 0 000-1.253zM2.763 8.056a5.292 5.292 0 1110.585 0 5.292 5.292 0 01-10.585 0z" fill="#000" stroke="#fff" stroke-width=".5"/></symbol><symbol fill="none" viewBox="0 0 9 9" id="star" xmlns="http://www.w3.org/2000/svg"><path d="M4.5.445l1.164 2.898 3.116.212-2.397 2.002.762 3.029L4.5 6.926l-2.645 1.66.762-3.029L.22 3.555l3.116-.212L4.5.445z" fill="#A9C43E"/></symbol><symbol fill="none" viewBox="0 0 54 43" id="truck" xmlns="http://www.w3.org/2000/svg"><path d="M51.489 20.989l-7.266-8.095a5.947 5.947 0 00-4.42-1.97H33.3l.616-5.521a3.544 3.544 0 00-.886-2.758 3.57 3.57 0 00-2.651-1.181H5.745c-.655 0-1.186.53-1.186 1.182 0 .653.531 1.183 1.186 1.183h24.633c.341 0 .655.14.883.394.228.254.334.58.296.92l-3.15 28.25H21.85c-.028-1.422-.503-2.735-1.392-3.791-1.152-1.37-2.846-2.122-4.77-2.122-3.484 0-6.824 2.576-7.894 5.912H2.186c-.655 0-1.186.53-1.186 1.183s.531 1.182 1.186 1.182h5.248c.029 1.422.504 2.735 1.392 3.791 1.153 1.369 2.846 2.122 4.77 2.122 3.485 0 6.824-2.576 7.894-5.913h11.448c.029 1.422.504 2.735 1.392 3.791 1.153 1.369 2.846 2.122 4.77 2.122 3.484 0 6.824-2.576 7.894-5.913h1.692a3.547 3.547 0 003.539-3.176l.743-7.03a5.915 5.915 0 00-1.479-4.562zm-32.085 13.38c-.48 2.722-3.087 4.936-5.809 4.936-1.21 0-2.258-.454-2.952-1.277-.714-.849-.985-2.002-.765-3.247.482-2.723 3.088-4.936 5.81-4.936 1.21 0 2.258.454 2.952 1.277.713.848.985 2.001.764 3.247zm25.504 0c-.48 2.722-3.087 4.936-5.809 4.936-1.21 0-2.258-.454-2.952-1.277-.714-.849-.985-2.002-.765-3.247.482-2.723 3.088-4.936 5.81-4.936 1.21 0 2.258.454 2.952 1.277.713.848.985 2.001.764 3.247zm5.7-9.066l-.742 7.03a1.182 1.182 0 01-1.18 1.06h-1.333c-.028-1.422-.503-2.735-1.392-3.791-1.152-1.37-2.846-2.122-4.77-2.122-3.484 0-6.824 2.576-7.894 5.912h-2.502l2.24-20.103h6.768c1.012 0 1.978.431 2.653 1.183l7.265 8.094c.668.745.992 1.743.887 2.737zm-10.18-9.266a1.189 1.189 0 00-.875-.383h-2.966c-.617 0-1.13.471-1.182 1.085l-.593 7.095a1.184 1.184 0 001.182 1.28h10.083a1.181 1.181 0 00.875-1.981l-6.525-7.096zm-3.145 6.713l.395-4.73h1.353l4.349 4.73h-6.097zm-4.848 17.737c0 .653-.531 1.183-1.186 1.183H25.91c-.655 0-1.186-.53-1.186-1.183 0-.652.531-1.182 1.186-1.182h5.338c.655 0 1.186.53 1.186 1.182zm-25.504 0c0 .653-.531 1.183-1.186 1.183H2.779c-.654 0-1.186-.53-1.186-1.183 0-.652.532-1.182 1.186-1.182h2.966c.655 0 1.186.53 1.186 1.182z" fill="#000" stroke="#F8F8F8"/><path d="M15.235 10.924h8.304c.655 0 1.186-.53 1.186-1.182 0-.653-.531-1.183-1.186-1.183h-8.304c-.654 0-1.186.53-1.186 1.183 0 .652.532 1.182 1.186 1.182zM6.932 9.742c0 .652.531 1.182 1.186 1.182h2.372c.655 0 1.187-.53 1.187-1.182 0-.653-.532-1.183-1.187-1.183H8.118c-.655 0-1.186.53-1.186 1.183zM22.353 16.837c0-.653-.532-1.183-1.187-1.183h-2.372c-.655 0-1.186.53-1.186 1.183s.531 1.182 1.186 1.182h2.372c.655 0 1.187-.53 1.187-1.182zM14.05 15.654H5.744c-.654 0-1.186.53-1.186 1.183s.532 1.182 1.186 1.182h8.304c.655 0 1.186-.53 1.186-1.182 0-.653-.531-1.183-1.186-1.183zM3.373 22.75c-.655 0-1.186.53-1.186 1.182 0 .653.531 1.183 1.186 1.183h15.421c.655 0 1.186-.53 1.186-1.183s-.531-1.182-1.186-1.182H3.373z" fill="#18A865"/><path d="M15.235 10.924h8.304c.655 0 1.186-.53 1.186-1.182 0-.653-.531-1.183-1.186-1.183h-8.304c-.654 0-1.186.53-1.186 1.183 0 .652.532 1.182 1.186 1.182zM6.932 9.742c0 .652.531 1.182 1.186 1.182h2.372c.655 0 1.187-.53 1.187-1.182 0-.653-.532-1.183-1.187-1.183H8.118c-.655 0-1.186.53-1.186 1.183zM22.353 16.837c0-.653-.532-1.183-1.187-1.183h-2.372c-.655 0-1.186.53-1.186 1.183s.531 1.182 1.186 1.182h2.372c.655 0 1.187-.53 1.187-1.182zM14.05 15.654H5.744c-.654 0-1.186.53-1.186 1.183s.532 1.182 1.186 1.182h8.304c.655 0 1.186-.53 1.186-1.182 0-.653-.531-1.183-1.186-1.183zM3.373 22.75c-.655 0-1.186.53-1.186 1.182 0 .653.531 1.183 1.186 1.183h15.421c.655 0 1.186-.53 1.186-1.183s-.531-1.182-1.186-1.182H3.373z" stroke="#F8F8F8"/></symbol><symbol fill="none" viewBox="0 0 25 24" id="up" xmlns="http://www.w3.org/2000/svg"><path d="M24.5 12a12 12 0 10-24 0 12 12 0 0024 0zm-11.25 5.25a.75.75 0 11-1.5 0V8.56l-3.219 3.221a.751.751 0 01-1.062-1.062l4.5-4.5a.75.75 0 011.062 0l4.5 4.5a.75.75 0 01-1.062 1.062l-3.219-3.22v8.689z" fill="#18A865"/></symbol><symbol fill="none" viewBox="0 0 19 14" id="v" xmlns="http://www.w3.org/2000/svg"><path d="M7.925 13.175l-6.25-6.25a1.25 1.25 0 011.763-1.763L7.925 9.65 16.4 1.175a1.25 1.25 0 011.763 1.762L7.925 13.175z" fill="#18A865" stroke="#fff"/></symbol><symbol fill="none" viewBox="0 0 18 18" id="vk" xmlns="http://www.w3.org/2000/svg"><path d="M8.926.555a8.45 8.45 0 100 16.898 8.45 8.45 0 000-16.898zm3.25 9.532s.747.738.93 1.08c.006.008.008.014.01.018.075.126.093.224.056.297-.062.121-.273.181-.345.186h-1.32a.924.924 0 01-.516-.184c-.179-.125-.355-.33-.527-.53-.256-.297-.478-.554-.701-.554a.27.27 0 00-.084.013c-.169.055-.385.296-.385.938 0 .201-.159.316-.27.316h-.605c-.206 0-1.279-.072-2.23-1.074-1.163-1.228-2.21-3.69-2.22-3.714-.065-.159.071-.244.22-.244h1.333c.178 0 .236.108.277.204.047.112.222.556.508 1.056.463.815.748 1.146.976 1.146a.264.264 0 00.122-.032c.298-.165.242-1.226.229-1.446 0-.041-.001-.474-.153-.682-.11-.15-.295-.208-.408-.229a.484.484 0 01.175-.148c.205-.103.572-.117.938-.117h.203c.396.005.498.03.642.066.29.07.296.257.27.899-.007.182-.015.388-.015.631 0 .053-.003.11-.003.17-.009.326-.02.696.211.848a.19.19 0 00.1.03c.08 0 .322 0 .975-1.121.202-.36.377-.735.524-1.121.013-.023.052-.094.098-.12a.235.235 0 01.109-.026h1.567c.17 0 .288.025.31.091.039.105-.007.424-.723 1.393l-.32.422c-.648.85-.648.893.041 1.539z" fill="#7E7F81"/></symbol><symbol fill="none" viewBox="0 0 48 48" id="warranty" xmlns="http://www.w3.org/2000/svg"><path d="M23.748 9.09c-8.083 0-14.66 6.576-14.66 14.66 0 8.083 6.577 14.66 14.66 14.66 8.084 0 14.66-6.577 14.66-14.66 0-8.084-6.576-14.66-14.66-14.66zm0 26.654c-6.613 0-11.994-5.38-11.994-11.994s5.38-11.995 11.995-11.995c6.613 0 11.994 5.381 11.994 11.995 0 6.613-5.38 11.994-11.995 11.994z" fill="#000" stroke="#F8F8F8" stroke-width="1.5"/><path d="M29.47 18.81l-7.054 7.053-4.389-4.388a1.333 1.333 0 00-1.885 1.884l5.331 5.331a1.329 1.329 0 001.885 0l7.996-7.996a1.333 1.333 0 10-1.885-1.885z" fill="#18A865" stroke="#F8F8F8" stroke-width="1.5"/><path d="M44.592 14.406l-4.655-2.787-1.044-4.323a3.981 3.981 0 00-4.195-3.047l-5.299.41-3.059-2.7a3.982 3.982 0 00-5.185 0l-3.058 2.7-5.3-.41a3.98 3.98 0 00-4.182 3l-1.454 4.63-4.253 2.527a3.982 3.982 0 00-1.602 4.931l1.813 4.394-1.813 4.394a3.981 3.981 0 001.602 4.931l4.647 2.769 1.048 4.34a3.98 3.98 0 003.879 3.06c.28 0-.035.011 5.56-.417l3.113 2.732c.752.64 1.672.96 2.593.96.92 0 1.842-.32 2.593-.96l3.113-2.732 5.244.406a3.982 3.982 0 004.195-3.048l1.044-4.323c5.69-3.407 4.484-2.681 4.655-2.787a3.982 3.982 0 001.602-4.931L44.38 23.73l1.813-4.394a3.981 3.981 0 00-1.602-4.931zm-2.885 9.833l2.023 4.903c.25.606.028 1.295-.529 1.64l-5.113 3.06a1.333 1.333 0 00-.61.832l-1.176 4.866a1.327 1.327 0 01-1.398 1.016l-5.804-.449a1.333 1.333 0 00-.982.327l-3.512 3.082c-.498.42-1.218.42-1.716 0l-3.512-3.082a1.333 1.333 0 00-.982-.327l-5.804.45a1.327 1.327 0 01-1.398-1.017l-1.18-4.886a1.333 1.333 0 00-.613-.832l-5.103-3.04a1.327 1.327 0 01-.528-1.64l2.023-4.903a1.332 1.332 0 000-1.016L3.77 18.32a1.327 1.327 0 01.527-1.639L8.96 13.91c.282-.168.493-.434.591-.747 1.719-5.48 1.622-5.159 1.642-5.241.154-.64.74-1.067 1.398-1.016l5.861.454c.36.027.715-.091.985-.33l3.453-3.048a1.327 1.327 0 011.714 0l3.453 3.048c.27.239.626.357.985.33l5.86-.454a1.327 1.327 0 011.4 1.016l1.174 4.867c.084.347.304.647.611.83l5.113 3.06c.557.346.78 1.035.529 1.641l-2.023 4.903a1.333 1.333 0 000 1.017z" fill="#000" stroke="#F8F8F8" stroke-width="1.5"/></symbol><symbol fill="none" viewBox="0 0 18 18" id="youtube" xmlns="http://www.w3.org/2000/svg"><path d="M10.302 9.28L8.325 8.36c-.173-.08-.314.01-.314.2v1.738c0 .19.141.28.314.2l1.976-.922c.173-.081.173-.213 0-.294zM8.89.98a8.45 8.45 0 100 16.898A8.45 8.45 0 008.89.98zm0 11.881c-4.325 0-4.4-.39-4.4-3.432 0-3.043.075-3.433 4.4-3.433s4.4.39 4.4 3.433c0 3.042-.075 3.432-4.4 3.432z" fill="#7E7F81"/></symbol></svg>